<?xml version="1.0" encoding="UTF-8"?>
<svg id="Calque_1" data-name="Calque 1" xmlns="http://www.w3.org/2000/svg" viewBox="0 0 323.237 322.289">
  <defs>
    <style>
      .cls-1 {
        fill: none;
        stroke: #fff;
        stroke-miterlimit: 10;
        stroke-width: 7px;
      }

      .cls-2 {
        fill: #fff;
        stroke-width: 0px;
      }
    </style>
  </defs>
  <g>
    <path class="cls-2" d="M54.702,123.319v69.58l-16.13,5.54c-3.36.73-6.65,1.86-9.79,3.36l-3.82,1.49-.97.59c-3.2,1.9-4.79,3.95-7.42,6.59-.27.27-.54.54-.8.82-.39-1.61-.59-3.3-.59-5.08v-82.89c0-5.4,1.92-10.03,5.78-13.88,3.85-3.86,8.54-5.79,14.07-5.79,5.4,0,10.03,1.93,13.88,5.79,3.86,3.85,5.79,8.48,5.79,13.88Z"/>
    <path class="cls-2" d="M239.912,97.489l-2.83,2.89h2.88c0-.97-.02-1.93-.05-2.89ZM194.662,29.239l11.63-21.03c.9-1.67,2.64-7.18,1.1-8.08-1.68-.78-6.73,2.3-7.63,3.83l-11.82,21.24c-12.21-5.4-23.42-6.57-37.04-6.57s-23.84,1.97-36.05,7.37l-12.14-22.24c-.9-1.53-6.63-4.4-8.3-3.63-1.54.91-.12,5.4.79,7.07l11.94,22.04c-13.88,7.08-24.93,16.93-33.16,29.59-8.22,12.67-12.34,26.51-12.34,41.55h142.84l29.83-28.9c-1.8-4.34-4.02-8.56-6.68-12.65-8.23-12.66-19.22-22.51-32.97-29.59ZM115.522,65.969c-1.48,1.48-3.25,2.22-5.3,2.22s-3.79-.74-5.21-2.22c-1.41-1.48-2.12-3.24-2.12-5.3s.71-3.82,2.12-5.3c1.42-1.48,3.15-2.22,5.21-2.22s3.82.74,5.3,2.22c1.48,1.48,2.22,3.24,2.22,5.3s-.75,3.82-2.22,5.3ZM196.782,65.969c-1.42,1.48-3.15,2.22-5.21,2.22s-3.82-.74-5.3-2.22-2.22-3.24-2.22-5.3.74-3.82,2.22-5.3c1.48-1.48,3.25-2.22,5.3-2.22s3.79.74,5.21,2.22c1.41,1.48,2.12,3.24,2.12,5.3s-.71,3.82-2.12,5.3Z"/>
    <path class="cls-2" d="M197.322,107.309l-57.61,55.81c-2.92,2.83-7.52,3.33-10.78.91-.34-.25-.65-.53-.95-.82-5.09-5.09-2.88-9.68-2.63-10.16l.15-.31c.01-.04,1.67-4.08,5.42-8.91,3.21-4.13,3.49-9.71.7-14.2-2.72-4.39-7.71-6.57-12.7-5.57-.59.11-1.16.28-1.68.5-13.54,5.79-23.69,18.69-31.02,39.43-4.11,11.61-12.66,20.9-23.81,26.01v-82.69h134.91Z"/>
    <path class="cls-2" d="M239.382,107.309v128.41c0,5.91-2.06,10.92-6.17,15.03-4.12,4.11-9.06,6.17-14.85,6.17h-14.46v43.76c0,5.53-1.92,10.22-5.78,14.08-3.85,3.85-8.55,5.78-14.07,5.78s-10.22-1.93-14.07-5.78c-3.86-3.86-5.79-8.55-5.79-14.08v-43.76h-26.6v43.76c0,5.53-1.93,10.22-5.78,14.08-3.86,3.85-8.55,5.78-14.07,5.78-5.4,0-10.03-1.93-13.88-5.78-.56-.56-1.09-1.15-1.57-1.75,3.42-1.94,6.64-4.36,9.55-7.27,2.66-2.66,4.97-5.64,6.87-8.86,7.24-9.53,11.33-22.73,13.49-32.15,2.12-9.21,8.67-16.82,17.52-20.34,8.82-3.51,20.99-9.48,26.25-14.74,4.46-4.46,6.42-8.95,6.18-14.13-.21-4.28-2.26-8.08-5.35-9.9-2.57-1.52-5.58-1.57-8.48-.15-.67.34-1.23.6-1.66.79-9.76,4.45-16.38,4.73-20.24.87-3.54-3.53-2.44-8.17-.86-11.49.97-2.04,2.32-3.88,3.89-5.49l80.87-82.84h9.06Z"/>
    <path class="cls-2" d="M266.764,103.654c-5.4,0-10.025,1.899-13.881,5.687-3.855,3.795-5.783,8.456-5.783,13.976v82.897c0,5.534,1.927,10.22,5.783,14.076s8.484,5.783,13.881,5.783c5.524,0,10.216-1.928,14.072-5.783s5.783-8.541,5.783-14.076v-82.897c0-5.52-1.927-10.181-5.783-13.976-3.856-3.788-8.548-5.687-14.072-5.687Z"/>
  </g>
  <path class="cls-1" d="M309.782,11.899c1.05-.63,2.22-.96,3.38-.96,2.36,0,4.56,1.31,5.74,3.41,1.16,2.07,1.11,4.53-.14,6.59l-27.156,44.703c-.908,1.495-2.977,1.744-4.214.507h0c-2.41-2.41-5.68-3.66-9.13-3.45-2.97.17-5.75,1.54-7.85,3.64l-4.15,4.15-26.35,27-2.83,2.89-6.76,6.93-80.87,82.84c-1.57,1.61-2.92,3.45-3.89,5.49-1.58,3.32-2.68,7.96.86,11.49,3.86,3.86,10.48,3.58,20.24-.87.43-.19.99-.45,1.66-.79,2.9-1.42,5.91-1.37,8.48.15,3.09,1.82,5.14,5.62,5.35,9.9.24,5.18-1.72,9.67-6.18,14.13-5.26,5.26-17.43,11.23-26.25,14.74-8.85,3.52-15.4,11.13-17.52,20.34-2.16,9.42-6.25,22.62-13.49,32.15-1.9,3.22-4.21,6.2-6.87,8.86-2.91,2.91-6.13,5.33-9.55,7.27-6.79,3.85-14.39,5.78-22,5.78-11.43,0-22.85-4.35-31.55-13.05l-31.66-31.66c-8.63-8.63-13.7-20.3-13.58-32.5.11-11.37,4.44-22.07,12.27-30.29.26-.28.53-.55.8-.82,2.63-2.64,4.22-4.69,7.42-6.59l.97-.59,3.82-1.49c3.14-1.5,6.43-2.63,9.79-3.36l16.13-5.54,3.38-1.16c1.48-.51,2.93-1.09,4.33-1.74,11.15-5.11,19.7-14.4,23.81-26.01,7.33-20.74,17.48-33.64,31.02-39.43.52-.22,1.09-.39,1.68-.5,4.99-1,9.98,1.18,12.7,5.57,2.79,4.49,2.51,10.07-.7,14.2-3.75,4.83-5.41,8.87-5.42,8.91l-.15.31c-.25.48-2.46,5.07,2.63,10.16.3.29.61.57.95.82,3.26,2.42,7.86,1.92,10.78-.91l57.61-55.81,7.16-6.93,29.83-28.9,15.73-15.24c1.25-1.21,2.19-2.74,2.71-4.4l2.29-7.27,2.47-1.48-1.26-3.01c-.61-1.45.15-3.13,1.69-3.61,1.35-.42,2.78.34,3.32,1.64l.92,2.19,3.53-2.1,4.68-2.79,3.53-2.11-1.26-3.01c-.585-1.415.124-3.048,1.589-3.573,1.329-.476,2.906.338,3.447,1.642l.894,2.15,11.74-7-1.26-3.01c-.61-1.45.15-3.13,1.69-3.61,1.35-.42,2.78.34,3.33,1.64l.91,2.19,14.78-8.82Z"/>
</svg>