<?xml version="1.0" encoding="UTF-8"?>
<svg id="Calque_1" data-name="Calque 1" xmlns="http://www.w3.org/2000/svg" viewBox="0 0 485.564 311.994">
  <defs>
    <style>
      .cls-1, .cls-2, .cls-3 {
        stroke-width: 0px;
      }

      .cls-1, .cls-4 {
        fill: #e1ded9;
      }

      .cls-2 {
        fill: #fff;
      }

      .cls-3 {
        fill: #a4a3a0;
      }

      .cls-4 {
        stroke: #e1ded9;
        stroke-miterlimit: 10;
        stroke-width: .25px;
      }
    </style>
  </defs>
  <g>
    <polygon class="cls-2" points="300.37 278.454 377.56 233.894 377.56 233.974 300.42 278.484 285.56 287.064 242.35 311.994 200.11 287.604 185.13 278.944 107.13 233.894 185.15 278.934 200.14 287.584 242.35 311.954 285.51 287.034 300.36 278.454 300.37 278.454"/>
    <path class="cls-2" d="M284.66,131.394v48.87l-.59.34-27.9,16.11s-.01,0-.01.01l-13.81,7.97-11.61-6.7h-.01l-9.28-5.36-5.5-3.18-11.32-6.53-.01-.01-.01-.01-4.59-2.64v-48.87l42.33-24.43,42.31,24.43Z"/>
    <polygon class="cls-1" points="377.56 78.204 336.85 101.724 336.84 101.724 336.46 101.504 336.46 101.494 294.52 77.284 335.23 53.784 335.24 53.784 377.17 77.984 377.56 78.204"/>
    <polygon class="cls-4" points="283.05 23.654 147.85 101.724 107.13 78.204 208.55 19.664 242.35 .144 267.92 14.914 283.05 23.654"/>
    <path class="cls-2" d="M284.66,180.264l-.59.34-27.9,16.11s-.01,0-.01.01l-13.81,7.97-11.61-6.7h-.01v-.01l-9.28-5.35-5.5-3.18-11.32-6.53-.01-.01-.01-.01-4.59-2.64,1.27-.73,13.29-7.67,27.77-16.04,28.92,16.7,13.24,7.65.15.09Z"/>
    <polygon class="cls-3" points="377.56 77.754 377.56 233.894 300.36 278.454 285.51 287.034 242.35 311.954 200.14 287.584 185.15 278.934 107.13 233.894 107.13 77.754 147.85 101.274 147.85 210.384 214.85 249.074 227.78 256.544 242.35 264.954 258.28 255.754 271.23 248.274 336.85 210.384 336.85 101.274 377.17 77.984 377.56 77.754"/>
    <polygon class="cls-3" points="284.66 131.394 284.66 180.264 284.51 180.174 271.27 172.524 242.35 155.824 214.58 171.864 201.29 179.534 200.02 180.264 200.02 131.394 242.35 106.964 284.66 131.394"/>
    <polygon class="cls-1" points="336.85 101.274 336.85 101.724 336.84 101.724 308.26 118.214 295.38 125.654 284.66 131.834 284.66 131.394 295.39 125.204 308.27 117.764 336.46 101.504 336.46 101.494 336.85 101.274"/>
    <path class="cls-1" d="M336.85,101.724v108.66l-65.62,37.89-12.95,7.48-15.93,9.2-14.57-8.41-12.93-7.47-67-38.69v-109.11l.38.22h.01l28.88,16.68,12.89,7.44,10.01,5.78v48.87l4.59,2.64.01.01.01.01,11.32,6.53,5.5,3.18,9.28,5.36h.01l11.61,6.7,13.81-7.97c0-.01.01-.01.01-.01l27.9-16.11.59-.34v-48.43l10.72-6.18,12.88-7.44,28.58-16.49h.01Z"/>
    <polygon class="cls-2" points="336.84 101.724 308.26 118.214 295.38 125.654 284.66 131.834 284.65 131.844 242.34 107.414 200.02 131.834 200.01 131.844 190 126.064 177.11 118.624 147.85 101.734 147.85 101.714 148.23 101.494 148.24 101.494 283.04 23.654 335.23 53.784 294.52 77.284 336.46 101.504 336.84 101.724"/>
  </g>
  <g id="g3854">
    <path class="cls-2" d="M75.69,80.014c11.21,0,21.86,2.45,31.44,6.85v16.76c-9.15-5.56-19.91-8.75-31.44-8.75-33.61,0-60.73,27.11-60.73,60.72s27.12,60.73,60.73,60.73c1.65,0,3.28-.07,4.89-.19-.56,2.94-.76,10.34-.14,14.9-1.57.09-3.15.14-4.75.14C34.01,231.174,0,197.274,0,155.594s34.01-75.58,75.69-75.58Z"/>
    <path class="cls-2" d="M104.7,208.984c.82-.45,1.63-.91,2.43-1.41v16.75c-1.43.66-2.89,1.27-4.37,1.84-.14-4.61,1.02-13.18,1.94-17.18Z"/>
    <path id="path3790" class="cls-2" d="M185.15,278.934s-.01,0-.02.01c-7.73,3.56-16.35,5.55-25.45,5.55-33.61,0-60.72-27.11-60.72-60.73,0-11.12,2.97-21.54,8.17-30.49,5.54-9.58,13.65-17.5,23.39-22.82,1.32-5.18,2.12-10.78,1.91-17.2-9.5,3.68-18.09,9.22-25.3,16.18-14.25,13.75-23.14,33.03-23.14,54.33,0,41.68,34.01,75.58,75.69,75.58,14.86,0,28.73-4.31,40.43-11.74.01-.01.02-.02.03-.02l-14.99-8.65Z"/>
    <path class="cls-2" d="M483.85,171.604c-8.8,40.74-49.1,66.72-89.84,57.92-5.8-1.25-11.3-3.14-16.45-5.58v-17.01c5.86,3.68,12.45,6.42,19.61,7.97,4.36.94,8.71,1.39,12.99,1.39,27.97,0,53.01-19.32,59.17-47.82,7.1-32.86-13.68-65.08-46.54-72.18-16.21-3.5-32.27-.22-45.23,7.96v-16.92c14.57-6.95,31.44-9.33,48.39-5.67,40.74,8.8,66.7,49.2,57.9,89.94Z"/>
    <path id="path3852" class="cls-2" d="M377.56,167.774c-11.08-10.05-25.15-16.86-40.71-18.93v15.01c17.04,2.81,31.64,12.7,40.71,26.56,3.33,5.08,5.91,10.7,7.61,16.7,4.91,1.87,10.18,3.52,16.3,4.65-2.77-17.33-11.46-32.71-23.91-43.99ZM386.93,231.874c-3.94,29.76-29.23,52.62-60.09,52.62-9.48,0-18.44-2.16-26.42-6.01-.02,0-.04-.01-.05-.03h-.01l-14.85,8.58c.01.01.03.02.05.03,11.88,7.76,26.07,12.28,41.28,12.28,37.99,0,69.52-28.16,74.8-64.71-3.87-.1-12-1.76-14.71-2.76Z"/>
  </g>
</svg>