<?xml version="1.0" encoding="UTF-8"?>
<svg id="Calque_1" data-name="Calque 1" xmlns="http://www.w3.org/2000/svg" viewBox="0 0 588 451">
  <defs>
    <style>
      .cls-1 {
        fill: #dedede;
      }

      .cls-1, .cls-2 {
        stroke-width: 0px;
      }

      .cls-2 {
        fill: #fff;
      }
    </style>
  </defs>
  <path class="cls-1" d="M500.869,152.116c0,62.53,1.3,133.56-66.04,163.3-30.04,13.26-65.93,11.19-94.94-3.78-34.8-17.96-45.04-49.35-46.57-86.68-.87-21.32.62-42.64.71-63.95.03-6.3.05-12.66-1.35-18.8-1.31-5.78-4-11.42-8.43-15.31-.27-.25-.56-.49-.85-.72-.15-.12-.31-.24-.46-.35-6.07-4.56-33.12-21.24-81.7.22l-.12-.22c8.47-4.74,16.95-9.48,25.42-14.21,36.9-20.62,73.83-41.2,110.75-61.77,1.11-.62,2.31-1.08,5.07-2.34,0,7.78.02,14.51,0,21.24-.09,27.16-.27,54.32-.25,81.49.02,28.33.13,56.66.36,84.99.17,19.64,10.06,34.15,26.23,43.7,24.78,14.63,56,7.23,72.87-16.2,6.99-9.72,9.02-21.01,9.08-32.68.22-44,.39-88,.35-132.01-.01-5.47,1.48-8.6,6.64-11.26,13.16-6.79,25.87-14.45,38.77-21.73.98-.55,2.09-.86,3.87-1.58.23,1.97.58,3.5.58,5.04.01,27.87.02,55.74.01,83.61Z"/>
  <path class="cls-1" d="M411.469,222.576c.03,8.81-2.6,16.07-11.05,20.12-13.15,6.31-26.19-1.36-26.33-15.91-.23-24.66.03-49.32.11-73.97.03-9.5.28-19,.18-28.49-.04-3.65,1.41-5.7,4.58-7.43,8.03-4.37,15.85-9.13,23.8-13.67,2.27-1.3,4.68-2.36,8.04-4.04.19,2.7.4,4.32.4,5.94.1,41.15.15,80.3.27,117.45Z"/>
  <path class="cls-2" d="M282.939,125.826c-1.29-.92-2.79-1.65-4.32-1.4-.94.14-1.79.64-2.57,1.18-5.35,3.7-8.61,9.85-10.14,16.17-1.53,6.33-1.5,12.91-1.46,19.41.25,41.96.3,83.89.37,125.84.02,11.45.05,22.91.09,34.36.02,5.65-1.42,9.05-6.72,11.72-9.95,5-19.46,10.89-29.17,16.36-1.41.79-3,1.28-5.22,2.22-.18-2.47-.43-4.36-.43-6.26-.01-51.67.02-103.34.02-155.01,0-10.29-4.31-16.62-12.5-18.6-10.88-2.64-21.22,4.84-21.42,16.26-.39,21.49-.29,43-.31,64.5-.03,38-.04,76,.08,114,.01,3.73-.93,6.15-4.38,8.06-10.47,5.81-20.74,11.98-31.12,17.96-.64.37-1.54.29-3.07.55v-5.65c-.07-53.17-.14-106.34-.19-159.51-.01-6.11-1.57-11.6-6.42-15.61-5.35-4.43-11.38-5.32-17.76-2.44-6.86,3.1-10.37,8.65-11.11,15.99-.25,2.48-.1,5-.1,7.5,0,58-.04,116.01.09,174.01.01,4.32-1.08,6.83-5.09,9.02-13.87,7.58-27.45,15.69-41.16,23.56-.82.47-1.79.65-3.69,1.32v-5.79c.01-61.34.04-122.67.02-184.01-.01-20.06,4.64-38.52,17.47-54.51,5.88-7.32,13.27-12.45,21.33-16.95,32.37-18.05,64.71-36.16,97.06-54.25l.12.22c48.58-21.46,75.63-4.78,81.7-.22Z"/>
</svg>