<?xml version="1.0" encoding="UTF-8"?>
<svg id="Calque_1" data-name="Calque 1" xmlns="http://www.w3.org/2000/svg" viewBox="0 0 502.599 305.682">
  <defs>
    <style>
      .cls-1 {
        fill: #e1ded9;
      }

      .cls-1, .cls-2 {
        stroke-width: 0px;
      }

      .cls-2 {
        fill: #fff;
      }
    </style>
  </defs>
  <path class="cls-1" d="M244.737,159.314c.445.085.889.164,1.332.242l-1.332-.242ZM248.371,159.919c.517.077,1.035.146,1.554.214l-1.554-.214ZM252.212,160.38c.505.046,1.008.089,1.513.128l-1.513-.128ZM254.267,160.545c.427.031.853.056,1.28.079l-1.28-.079ZM256.168,160.656c.505.022,1.011.042,1.516.058l-1.516-.058ZM258.187,160.72c1.129.03,2.259.031,3.388.003l-3.388-.003ZM262.115,160.714c.526-.016,1.053-.036,1.579-.061l-1.579.061ZM264.19,160.629c.456-.025.905-.054,1.359-.085l-1.359.085ZM266.02,160.512c.494-.037.989-.079,1.479-.125l-1.479.125ZM270.031,160.105c.381-.045.758-.094,1.134-.153l-1.134.153ZM339.395,32.522c-.409-.221-.829-.421-1.258-.601l1.258.601ZM335.274,31.04c-.526-.108-1.057-.189-1.591-.244l1.591.244ZM433.998,108.143l-.287.04.287-.04ZM65.455,85.74c-1.83-1.679-3.22-3.781-4.05-6.122-.675-1.955-1.549-4.398-1.549-6.471.043-9.351,5.501-16.297,11.376-19.512,2.67-1.46,3.662-2.462,4.069-2.976-.195-.086-.404-.14-.617-.158-7.997,0-12.097-3.107-14.11-5.737-1.907-2.463-2.881-5.639-2.881-9.112,0-1.687.238-3.454.706-5.26,2.254-3.723,4.395-2.7,5.706-.795.836,1.192,6.561,5.251,13.615,5.895,5.133.488,7.9,2.999,9.339,5.004,1.659,2.322,2.295,5.12,2.295,7.5,0,.974-.11,1.888-.32,2.701-.773,3.137-4.078,5.964-8.681,9.567l-2.611,2.165c-3.822,3.345-5.926,7.068-5.926,10.222,0,.788.138,1.557.404,2.266.11.291.242.572.398.838,1.708,2.892,6.535,4.705,13.538,2.255,3.236-1.122,9.467-5.044,13.271-8.816,4.476-4.466,10.451-5.538,16.205-5.993,4.989-.376,8.061-1.6,10.224-4.032,6.393-7.203,12.544-8.215,18.302-8.643,2.203-.169,2.322-.327,2.609-.715,3.174-4.227,6.434-6.464,9.36-7.766,2.23-.992,4.267-1.444,5.935-1.809l2.025-.498.505-.178c3.205-1.032,5.686-1.887,12.207-6.293l.278-.175v-.003s.275-.171.275-.171h.003s.275-.164.275-.164h.004s.275-.159.275-.159h.004s.277-.147.277-.147l.009-.003.274-.143.009-.003.275-.134.012-.003.277-.128.01-.006.278-.116.012-.004.277-.114.015-.003.278-.104.013-.007.275-.098.293-.098.019-.004.274-.088.018-.004.278-.08.019-.004.275-.076.021-.006.277-.065.025-.006.272-.062.022-.006.278-.056.024-.006.275-.051.025-.004.275-.046.025-.003.272-.04.028-.006.274-.031.028-.006.269-.03h.03s.272-.027.272-.027l.031-.003.271-.019.031-.003.266-.016h.031s.269-.013.269-.013l.3-.009h.031l.268-.003h.333l.265.003h.031s.031.001.031.001c.19.004.381.016.571.027l.262.016.037.003.257.019.039.003.257.025.04.004.256.025.042.003.254.031.04.006.253.031.043.007.25.037.042.007.251.039.045.009.245.043.046.007.244.045.045.01c.39.073.773.159,1.149.251l.236.059.048.013c.379.098.754.202,1.122.312l.219.068.054.016c.731.23,1.441.491,2.127.766l.193.08.253.104C209.096,13.836,231.143,1.231,256.201.091v-.006c1.234-.055,2.468-.084,3.703-.085.816,0,1.633.013,2.449.037.406.013.812.03,1.216.046h.004c.401.019.807.039,1.21.064,24.247,1.457,45.602,13.668,59.355,31.926,1.964-.682,4.103-1.177,6.287-1.326l.058-.003.207-.013.216-.01.052-.003h.056s.211-.007.211-.007l.056-.003h.211s.056-.003.056-.003h.216s.052-.001.052-.001h.216s.054.001.054.001l.266.004.217.009h.048s.217.012.217.012l.051.003.219.015.042.003.222.018.043.003.223.022.04.004c.534.055,1.065.136,1.591.244l.233.048.031.007.23.055.033.006.232.059.031.007.235.062.025.007.241.067.022.007.235.073.027.007.239.079.021.006.259.091.242.086.015.007.241.094.015.006.245.098.015.007c.424.178.843.376,1.258.601l.007.004.245.131.003.003.245.141h.004s.245.15.245.15h.003s.242.155.242.155h0s.245.159.245.159c4.493,3.054,7.088,4.399,9.304,5.278.996.397,1.921.696,2.902,1.015l.516.178,2.046.498c1.109.244,2.376.525,3.748.974,3.433,1.118,7.534,3.288,11.514,8.602.288.388.416.546,2.63.715,5.752.43,11.893,1.441,18.313,8.643,2.147,2.432,5.203,3.654,10.191,4.032,5.788.455,11.743,1.525,16.211,5.993,3.809,3.772,10.032,7.693,13.277,8.816,6.999,2.45,11.85.636,13.518-2.255.366-.61.611-1.28.736-1.989.065-.368.099-.741.1-1.115,0-3.155-2.107-6.877-5.918-10.222l-.474-.394-2.162-1.771c-4.585-3.602-7.891-6.43-8.688-9.567-.21-.813-.3-1.728-.3-2.701,0-2.382.651-5.178,2.278-7.5,1.45-2.006,4.246-4.516,9.347-5.004,7.091-.644,12.785-4.702,13.618-5.895,1.334-1.904,3.454-2.927,5.698.795.476,1.806.714,3.572.714,5.26,0,3.492-.974,6.648-2.88,9.112-2.026,2.63-6.113,5.737-14.123,5.737-.169,0-.406.079-.604.158.397.516,1.389,1.518,4.065,2.976,5.875,3.217,11.339,10.163,11.388,19.512,0,2.074-.864,4.515-1.561,6.471-.729,2.052-1.884,3.926-3.39,5.499-.204.211-.416.419-.641.623-3.309,3.074-8.822,5.487-18.006,4.939-.967-.059-1.932-.146-2.895-.262-.238,4.634-1.509,10.142-3.297,12.921-.544.873-.651,1.458-.651,1.745,0,.12.012.19.012.241.056.019,4.075,2.391,4.075,2.391l.648.329s.378.178.427.219c.058-.021,1.389-.08,1.389-.08l.263-.037.027-.003c2.512-.239,6.35-1.469,7.98,3.086.427,1.209.687,2.261.932,3.193.498,1.906.925,3.321,2.593,4.607,0,0,.825-.708,1.762-1.54.724-.639,1.433-1.294,2.127-1.964,1.163-1.191,3.314-.586,4.864,0,1.568.595,3.51,1.946,4.882,2.728,1.381.775,2.142,1.757,2.539,2.93.415,1.17,1.374,1.945,2.837,2.719,1.412.803,3.437,3.375,3.437,6.846,0,.532.059.987.21,1.47.103.32.242.653.434,1.032,1.974,3.98.389,5.984-.754,6.828-1.537,1.151-4.249,1.626-6.797,1.21l.021.654-3.721-.497c-1.442-.18-3.343.189-4.479.425l-.268.071c-2.649.526-6.113-.37-8.059-3.531-.071-.117-.143-.235-.21-.36-.993-1.744-2.539-3.363-3.296-3.81-1.093.3-2.819.708-4.873.498-1.906-.192-4.105-.923-6.341-2.776-.37-.308-.743-.648-1.113-1.017-3.286-3.296-7.621-3.971-10.346-3.553l-1.625.288c-3.354.607-7.543,1.38-11.413-.981-.963-.587-2.352-1.192-3.714-1.768-3.513-1.53-7.145-3.107-7.64-6.433-.083-.593-.726-1.677-1.253-2.539-.464-.763-.969-1.597-1.36-2.49-.376-.853-.647-1.762-.672-2.71-1.15.296-2.339.417-3.525.36-.419-.021-.837-.062-1.252-.123l-1.525-.236c-2.57-.439-7.954-1.323-9.668-.697-3.413,1.231-14.155,1.826-17.1,1.152,0,0-1.084-.238-2.105-.455-.981,1.012-2.075,1.962-3.226,2.808,2.156.117,4.051-.15,5.353.186l2.706.714c.864-.256,2.976-.226,4.176-.117l3.17.238,3.616.348c1.742.349,3.592,1.102,3.275,4.515-.122,1.053-.711,2.541-1.597,3.415-.488.535-2.377,3.275-2.792,4.137l-.135.269c-.736,1.568-1.827,3.009-5.004,3.009-.403-.005-.807.01-1.209.048-.097.257-.357.734-.357.734-.715,1.626-1.748,3.891-3.723,5.2l-.528.379c-1.585,1.131-4.225,2.996-8.267,1.528l-1.392-.498c-3.523-1.27-8.852-3.174-11.541-4.644l-.378-.208c-2.505-1.371-3.06-1.646-3.969-1.518l-.505.079c-1.921.269-5.542.755-8.046-3.396l-.229-.36c-11.871,16.294-29.714,27.957-50.307,31.764l-.091.019c-.702.128-1.409.247-2.117.358l-.263.039-.968.143c-.376.056-.754.107-1.134.155l-.69.086-1.088.117-.754.079c-.491.046-.986.088-1.479.125l-.468.031c-.453.031-.902.061-1.359.085l-.497.027c-.526.025-1.05.045-1.579.061l-.537.009c-1.129.028-2.259.027-3.388-.003l-.505-.006c-.506-.016-1.011-.036-1.516-.058l-.618-.034c-.427-.024-.853-.046-1.28-.079l-.543-.036c-.505-.039-1.009-.082-1.513-.128l-.746-.077-.989-.107-.552-.064c-.519-.064-1.037-.136-1.554-.216l-.626-.092-1.106-.172-.569-.095c-.445-.079-.889-.156-1.332-.242l-.959-.192-.491-.1c-.656-.143-1.316-.284-1.967-.442l-.172-.04-1.024-.25-.526-.135c-.611-.158-1.219-.327-1.826-.497l-.217-.064c-18.057-5.209-33.487-16.581-43.889-31.685l-1.369,2.084c-2.48,4.151-6.094,3.663-8.04,3.396l-.505-.079c-.907-.128-1.481.147-3.962,1.518l-.398.208c-2.68,1.47-7.988,3.375-11.531,4.644l-1.394.498c-4.039,1.467-6.688-.4-8.244-1.528l-.546-.379c-1.976-1.308-2.999-3.572-3.724-5.2,0,0-.238-.477-.354-.734-.403-.037-.807-.053-1.212-.048-3.147,0-4.27-1.441-4.994-3.009l-.128-.269c-.427-.862-2.292-3.602-2.808-4.137-.873-.873-1.493-2.362-1.591-3.415-.327-3.413,1.548-4.166,3.274-4.515l3.617-.348,3.176-.238c1.18-.109,3.294-.138,4.157.117l2.709-.714c1.289-.336,3.204-.068,5.34-.186-1.136-.86-2.21-1.799-3.216-2.808-1.033.217-2.107.455-2.107.455-2.954.673-13.676.079-17.068-1.152-1.725-.626-7.103.257-9.686.697l-1.549.236c-1.581.243-3.194.162-4.742-.236-.082,1.943-1.134,3.708-2.037,5.2-.525.862-1.189,1.946-1.27,2.539-.464,3.326-4.14,4.903-7.643,6.433-1.36.575-2.728,1.18-3.699,1.768-3.842,2.361-8.05,1.588-11.415.981l-1.629-.288c-2.71-.418-7.048.257-10.341,3.553-5.035,5.023-10.045,3.919-12.327,3.294-.755.447-2.312,2.066-3.297,3.81-1.903,3.455-5.538,4.436-8.276,3.891l-.275-.071c-1.124-.236-3.002-.605-4.439-.425l-3.743.497.04-.654c-2.562.416-5.282-.061-6.825-1.21-1.134-.844-2.724-2.848-.717-6.828.465-.954.624-1.617.624-2.502,0-3.473,2.008-6.043,3.418-6.846,1.478-.775,2.45-1.549,2.845-2.719.388-1.173,1.149-2.156,2.532-2.93,1.368-.782,3.314-2.133,4.873-2.728,1.557-.586,3.708-1.191,4.881,0,1.182,1.151,3.889,3.503,3.889,3.503,2.484-1.918,2.246-4.128,3.534-7.802,1.61-4.555,5.462-3.326,7.963-3.086l.287.04s1.348.059,1.389.08c.07-.04.447-.219.447-.219l.626-.329s4.038-2.371,4.078-2.391c.018-.049.018-.12.018-.241,0-.287-.098-.873-.644-1.745-1.796-2.78-3.065-8.287-3.296-12.921-.648.077-1.274.141-1.89.19-9.779.785-15.591-1.689-18.991-4.875h0Z"/>
  <path class="cls-2" d="M89.53,87.04s-.815,7.887,2.738,14.837c0,0,2.633,3.732-.101,6.128l-5.443,3.164s-.731.544-3.159.36c0,0-3.355-.831-4.476.651,0,0-.974,2.85-2.193,5.199,0,0-2.478,5.694-6.58,7.518,0,0-3.269.749-4.261,3.584,0,0-1.054,1.989-3.165,2.077,0,0-1.574.5-2.617,4.007,0,0-.568,2.269-.538,4.008,0,0,2.685-.352,4.435.281,0,0,4.302,1.445,6.226-2.099,0,0,3.717-6.364,6.473-5.407,0,0,5.536,1.852,9.446-2.188,0,0,5.371-5.868,12.958-4.661,0,0,8.545,1.73,11.211-.241,0,0,5.389-2.817,7.411-3.516,0,0,2.474-.727,2.73-3.436,0,0,1.505-3.81,2.599-5.08l-4.076-.046s-3.691,6.208-9.964,8.08c0,0-3.43,1.371-10.314.257,0,0-9.885-2.239-18.567,7.137,0,0-1.186,1.714-2.88,1.029,0,0,4.797-8.181,15.33-10.12,0,0,3.448-.733,6.323-.266,0,0,14.187.416,20.766-13.551,0,0-.712-11.908,2.429-14.728,0,0,1.213-.372.971,1.931,0,0-2.159,12.475,1.895,14.89,0,0,2.353,1.849,6.708,1.166,0,0,6.601-1.577,11.966-.659,0,0,8.251,1.958,15.341,1.053,0,0-1.84-2.819-1.479-6.189,0,0,1.015-2.413,2.179-.861,0,0,2.728,9.012,10.184,11.716,0,0,6.659,2.425,6.55,10.87,0,0-1.02,1.158-9.849,4.295,0,0-3.299,1.042-4.362-1.423,0,0-4.258-9.113-7.964-8.832l-6.959.565s-2.374.608-.626,2.511c0,0,2.383,3.168,3.357,5.059,0,0,.284,1.616,2.523,1.273,0,0,3.106-1.539,4.857,4.238,0,0,1.603,2.889,4.316,3.812,0,0,2.538.847,4.919-.489,0,0,11.493-4.219,13.494-5.715,0,0,2.486-1.392,4.457-.723,0,0,3.448.822,4.867-1.898l3.562-5.511s.782-1.357.673-3.063c0,0,.323-1.689-1.102-3.406,0,0-1.345-1.423-1.558-2.453l-2.539-5.967s-1.029-1.594-2.159-2.249l-3.39.248s2.333,5.962,4.041,8.391c0,0,2.312,3.535,2.194,5.783,0,0-.153,1.576-.775,2.233,0,0-.782,1.252-1.097,1.86,0,0-1.027,2.23-1.861,2.725,0,0-1.442.853-1.793.888,0,0-.627.174-.162-.95,0,0,1.9-3.998,1.775-6.135,0,0,.369-2.227-1.207-3.531,0,0-3.693-5.829-4.222-7.572,0,0-1.158-2.331-1.775-2.731,0,0-1.29-1.696.792-2.49,0,0,5.188-1.171,6.118-1.808,0,0,2.495-.755,4.115-5.951,0,0,2.231-6.06,2.199-9.8,0,0,4.374,8.432-2.602,17.007,0,0,5.52,1.628,7.803,0,0,0,6.876-1.005,8.203-1.371,0,0,1.729-.418.742.809,0,0-2.074,2.95-2.249,4.882,0,0-.134,1.539-1.394,2.44,0,0-3.908,2.737-4.252,5.358,0,0-.835,2.523.891,1.919,0,0,2.34-1.084,3.167.007,0,0,.242.114-.66,1.127,0,0-2.347,2.043-2.523,4.784,0,0,.434,3.164,1.264,4.18,0,0,1.057,1.466,2.728,1.001,0,0,.443-.358,1.243-.117,0,0,.827-.003,2.985-.749,0,0,3.272-.899,4.366-1.286,0,0,4.166-1.49,6.22-1.386,0,0,1.337-.147,3.04.193,0,0,5.209.592,8.681-3.245,0,0,2.642-2.095,3.538-.061,0,0,6.338,8.504,16.596,6.263,0,0-8.162-3.357-10.279-7.928,0,0-.282-3.882-4.558-9.272,0,0-1.307-1.788-.046-2.254,0,0,.73-.546,2.322,1.053,0,0,4.062,3.897,5.529,7.463,0,0,5.044,7.622,12.314,5.061,0,0-5.707-2.202-8.389-6.308,0,0-1.658-5.557-7.23-9.692,0,0-.219-6.245-2.817-9.755,0,0-1.325-5.865-1.681-7.236,0,0-1.402-5.151-1.393-6.574,0,0,.464-6.729-3.874-11.966,0,0-2.906-5.603-7.433-9.507,0,0-3.44-4.25-5.999-6.854,0,0-3.366-3.946-10.704-9.094,0,0-3.323-2.416-5.756-5.013,0,0-12.944-9.317-22.295-1.843,0,0-6.458,4.393-11.852,5.753,0,0-11.085,1.29-15.811,8.984,0,0-.404,1.421-4.872,1.962,0,0-9.813-1.185-17.039,8.467,0,0-3.357,3.277-10.002,4.073,0,0-10.838-1.109-17.893,7.2,0,0-17.804,15.531-28.421,5.459,0,0-5.501-5.208.788-14.638,0,0,3.989-4.814,10.793-9.843,0,0,5.52-3.889,2.99-9.935,0,0-1.337-5.843-9.61-5.997,0,0-10.381-2.006-14.58-7.247,0,0-4.687,16.509,13.71,16.234,0,0,4.794.709,3.121,4.515,0,0-2.35,3.256-5.505,4.441,0,0-5.55,2.428-8.058,10.509,0,0-5.605,14.147,8.07,19.608,5.263,1.818,11.342,1.283,16.758.34h0ZM63.202,120.377c.742-.62,1.829-.969,2.793-.743,2.176.468.859,2.353.859,2.353-.882,1.649-3.758,4.43-3.758,4.43-2.559,1.916-4.585-.366-4.585-.366-1.895-1.869.571-2.773.571-2.773,1.435-.583,4.12-2.902,4.12-2.902ZM57.717,129.219s.795.587.37,1.747c0,0-2.031,5.559-1.936,7.424,0,0-4.494.803-5.117-1.415,0,0-.12-.856.613-2.098,0,0,.763-1.158.96-3.277,0,0-.067-5.331,3.387-3.919.685.384,1.226.941,1.723,1.537h0ZM216.121,117.938c-.791-.019-.992-.309-.896-1.18.531-2.422,2.472-3.467,2.472-3.467,3.642-2.176,4.085.003,4.085.003.668,3.888-2.405,4.377-2.405,4.377-.614.211-3.256.268-3.256.268ZM227.109,100.577c.067-1.824.222-5.878-1.632-7.326-.684-.544-3.39-3.507-3.39-3.507-.412-.718-.728-.763-.728-.763-.557-.054-1.277,1.243-1.277,1.243-1.927,3.718-3.849,3.265-3.849,3.265-.016-.678.437-1.435.437-1.435.93-1.806,1.851-3.617,2.764-5.432.281-.645.54-1.505.54-1.505,1.86-2.883,3.613-.688,3.613-.688.782,1.527,4.952,6.501,4.952,6.501.925,1.1,1.014,2.282,1.014,2.282.966,6.813-2.443,7.365-2.443,7.365h0ZM188.701,59.447c-.569-1.024-.334-2.069.238-3.065,1.29-1.977,2.496.18,2.496.18,4.456,6.211,1.166,15.51,1.166,15.51-.458-8.559-3.9-12.625-3.9-12.625h0ZM427.924,87.04s.815,7.887-2.738,14.837c0,0-2.633,3.732.101,6.128l5.444,3.164s.73.544,3.159.36c0,0,3.354-.831,4.473.651,0,0,.975,2.85,2.193,5.199,0,0,2.483,5.694,6.584,7.518,0,0,3.268.749,4.256,3.584,0,0,1.057,1.989,3.165,2.077,0,0,1.577.5,2.618,4.007,0,0,.569,2.269.541,4.008,0,0-2.686-.352-4.438.281,0,0-4.301,1.445-6.225-2.099,0,0-3.717-6.364-6.473-5.407,0,0-5.535,1.852-9.446-2.188,0,0-5.37-5.868-12.958-4.661,0,0-8.542,1.73-11.209-.241,0,0-5.389-2.817-7.411-3.516,0,0-2.475-.727-2.728-3.436,0,0-1.506-3.81-2.6-5.08l4.075-.046s3.69,6.208,9.962,8.08c0,0,3.433,1.371,10.314.257,0,0,9.886-2.239,18.568,7.137,0,0,1.188,1.714,2.878,1.029,0,0-4.794-8.181-15.329-10.12,0,0-3.446-.733-6.324-.266,0,0-14.187.416-20.769-13.551,0,0,.715-11.908-2.426-14.728,0,0-1.21-.372-.972,1.931,0,0,2.157,12.475-1.894,14.89,0,0-2.355,1.849-6.709,1.166,0,0-6.599-1.577-11.963-.659,0,0-8.254,1.958-15.344,1.053,0,0,1.842-2.819,1.481-6.189,0,0-1.017-2.413-2.181-.861,0,0-2.728,9.012-10.185,11.716,0,0-6.659,2.425-6.55,10.87,0,0,1.023,1.158,9.854,4.295,0,0,3.3,1.042,4.363-1.423,0,0,4.253-9.113,7.961-8.832l6.962.565s2.373.608.623,2.511c0,0-2.38,3.168-3.357,5.059,0,0-.281,1.616-2.521,1.273,0,0-3.106-1.539-4.86,4.238,0,0-1.6,2.889-4.313,3.812,0,0-2.539.847-4.919-.489,0,0-11.493-4.219-13.493-5.715,0,0-2.487-1.392-4.457-.723,0,0-3.445.822-4.864-1.898l-3.562-5.511s-.785-1.357-.675-3.063c0,0-.324-1.689,1.102-3.406,0,0,1.347-1.423,1.558-2.453l2.541-5.967s1.029-1.594,2.157-2.249l3.393.248s-2.336,5.962-4.045,8.391c0,0-2.312,3.535-2.194,5.783,0,0,.155,1.576.775,2.233,0,0,.782,1.252,1.099,1.86,0,0,1.023,2.23,1.86,2.725,0,0,1.441.853,1.793.888,0,0,.629.174.158-.95,0,0-1.894-3.998-1.774-6.135,0,0-.366-2.227,1.207-3.531,0,0,3.696-5.829,4.228-7.572,0,0,1.154-2.331,1.772-2.731,0,0,1.29-1.696-.792-2.49,0,0-5.187-1.171-6.116-1.808,0,0-2.495-.755-4.117-5.951,0,0-2.23-6.06-2.199-9.8,0,0-4.374,8.432,2.603,17.007,0,0-5.52,1.628-7.803,0,0,0-6.874-1.005-8.206-1.371,0,0-1.725-.418-.74.809,0,0,2.072,2.95,2.251,4.882,0,0,.131,1.539,1.394,2.44,0,0,3.908,2.737,4.249,5.358,0,0,.837,2.523-.891,1.919,0,0-2.339-1.084-3.165.007,0,0-.242.114.66,1.127,0,0,2.347,2.043,2.521,4.784,0,0-.434,3.164-1.265,4.18,0,0-1.056,1.466-2.727,1.001,0,0-.442-.358-1.246-.117,0,0-.825-.003-2.984-.749,0,0-3.272-.899-4.366-1.286,0,0-4.166-1.49-6.222-1.386,0,0-1.337-.147-3.04.193,0,0-5.211.592-8.682-3.245,0,0-2.642-2.095-3.535-.061,0,0-6.339,8.504-16.599,6.263,0,0,8.166-3.357,10.282-7.928,0,0,.279-3.882,4.555-9.272,0,0,1.305-1.788.045-2.254,0,0-.728-.546-2.322,1.053,0,0-4.057,3.897-5.526,7.463,0,0-5.047,7.622-12.314,5.061,0,0,5.704-2.202,8.386-6.308,0,0,1.658-5.557,7.234-9.692,0,0,.217-6.245,2.817-9.755,0,0,1.326-5.865,1.68-7.236,0,0,1.4-5.151,1.392-6.574,0,0-.464-6.729,3.876-11.966,0,0,2.905-5.603,7.436-9.507,0,0,3.439-4.25,5.996-6.854,0,0,3.367-3.946,10.705-9.094,0,0,3.321-2.416,5.753-5.013,0,0,12.943-9.317,22.297-1.843,0,0,6.458,4.393,11.855,5.753,0,0,11.082,1.29,15.805,8.984,0,0,.404,1.421,4.872,1.962,0,0,9.813-1.185,17.04,8.467,0,0,3.357,3.277,10.004,4.073,0,0,10.832-1.109,17.888,7.2,0,0,17.806,15.531,28.423,5.459,0,0,5.498-5.208-.789-14.638,0,0-3.987-4.814-10.79-9.843,0,0-5.524-3.889-2.991-9.935,0,0,1.336-5.843,9.61-5.997,0,0,10.381-2.006,14.578-7.247,0,0,4.69,16.509-13.71,16.234,0,0-4.796.709-3.121,4.515,0,0,2.35,3.256,5.505,4.441,0,0,5.55,2.428,8.059,10.509,0,0,5.606,14.147-8.074,19.608-5.255,1.818-11.333,1.283-16.749.34h0ZM454.253,120.377c-.743-.62-1.83-.969-2.792-.743-2.179.468-.861,2.353-.861,2.353.883,1.649,3.76,4.43,3.76,4.43,2.562,1.916,4.585-.366,4.585-.366,1.893-1.869-.575-2.773-.575-2.773-1.432-.583-4.117-2.902-4.117-2.902ZM459.736,129.219s-.791.587-.37,1.747c0,0,2.031,5.559,1.937,7.424,0,0,4.497.803,5.116-1.415,0,0,.12-.856-.611-2.098,0,0-.763-1.158-.96-3.277,0,0,.068-5.331-3.385-3.919-.687.384-1.228.941-1.726,1.537h0ZM301.332,117.938c.792-.019.996-.309.898-1.18-.532-2.422-2.471-3.467-2.471-3.467-3.642-2.176-4.087.003-4.087.003-.665,3.888,2.407,4.377,2.407,4.377.614.211,3.253.268,3.253.268h0ZM290.347,100.577c-.068-1.824-.224-5.878,1.632-7.326.687-.544,3.39-3.507,3.39-3.507.412-.718.728-.763.728-.763.555-.054,1.279,1.243,1.279,1.243,1.924,3.718,3.849,3.265,3.849,3.265.015-.678-.442-1.435-.442-1.435-.93-1.806-1.85-3.617-2.762-5.432-.204-.493-.384-.995-.54-1.505-1.86-2.883-3.611-.688-3.611-.688-.782,1.527-4.951,6.501-4.951,6.501-.552.647-.905,1.439-1.018,2.282-.962,6.813,2.446,7.365,2.446,7.365h0ZM328.753,59.447c.569-1.024.335-2.069-.238-3.065-1.29-1.977-2.493.18-2.493.18-4.457,6.211-1.167,15.51-1.167,15.51.455-8.559,3.898-12.625,3.898-12.625h0Z"/>
  <path class="cls-2" d="M0,188.162v113.939h22.991v-92.194h10.832s16.909-.761,16.909,14.632-15.012,15.009-15.012,15.009h-5.511v26.226l22.996,36.33h26.978l-32.11-46.588s26.412-2.281,26.412-30.975-19.952-36.376-46.552-36.376l-27.933-.004ZM336.143,241.456s10.068-7.832,10.068-22.673-10.784-28.235-33.747-28.235h-38.457v111.555h47.368s33.951-.385,33.951-31.065c.001-17.81-6.913-24.631-19.182-29.582ZM317.615,282.687h-20.614v-72.687h11.018s14.974-1.124,14.974,11.939-11.911,11.911-11.911,11.911h-6.861v19.582h13.39c3.51,0,14.693,1.702,14.693,14.571-.001,12.866-14.688,14.684-14.688,14.684h0ZM481.126,185.922h21.473v116.181h-21.473v-116.181h0ZM444.17,185.922h21.756v116.181h-21.756v-116.181h0ZM361.797,234.044h22.038v38.951s.767,13.117,13.114,13.117,12.164-13.117,12.164-13.117v-38.766h22.227v40.101s2.853,31.352-33.823,31.352-35.72-27.552-35.72-32.493v-39.145h0ZM215.675,185.922v52.684s-10.642-8.169-22.81-8.169-32.678,8.55-32.678,35.53,17.483,37.248,32.493,37.248,23.375-9.883,23.375-9.883v8.774h21.658v-116.183h-22.037s0-.001,0-.001ZM198.95,284.205c-1.142,0-15.393.192-15.393-17.288s15.58-18.054,15.58-18.054c0,0,17.485.569,17.485,17.672s-16.533,17.67-17.672,17.67ZM116.861,230.434c36.863,0,35.342,35.915,35.342,35.915v5.697h-49.973c0,8.168,6.839,15.201,16.151,15.201s14.061-8.93,14.061-8.93l17.669,8.739c-8.169,12.356-19.19,17.291-31.54,17.291-38.386,0-39.145-31.92-39.145-35.909s.574-38.004,37.434-38.004h0ZM102.608,258.932h27.366s-1.14-12.916-13.491-12.916c-12.351-.001-13.875,12.916-13.875,12.916Z"/>
</svg>