<?xml version="1.0" encoding="UTF-8"?>
<svg id="Calque_1" data-name="Calque 1" xmlns="http://www.w3.org/2000/svg" viewBox="0 0 476.315 332.316">
  <defs>
    <style>
      .cls-1 {
        fill-rule: evenodd;
      }

      .cls-1, .cls-2, .cls-3 {
        stroke-miterlimit: 10;
      }

      .cls-1, .cls-3 {
        fill: none;
        stroke: #fff;
      }

      .cls-2 {
        stroke: #a4a3a0;
      }

      .cls-2, .cls-4 {
        fill: #fff;
      }

      .cls-5 {
        fill: #e1ded9;
      }

      .cls-5, .cls-4 {
        stroke-width: 0px;
      }
    </style>
  </defs>
  <path id="path4156" class="cls-1" d="M2.581,2.564l470.506,1.434.717,163.971-152.551-.717v162.537h-166.104v-161.82l-151.851.717L2.581,2.564Z"/>
  <path class="cls-3" d="M321.236,331.816h-166.104c-1.137,0-2.046-.909-2.046-2.046v-159.773l-149.788.7h-.017c-.542,0-1.067-.21-1.452-.595s-.612-.909-.612-1.452L.5,2.546c0-.542.21-1.067.595-1.452s.909-.595,1.452-.595h0l470.506,1.434c1.119,0,2.046.909,2.046,2.046l.717,163.971c0,.542-.21,1.067-.595,1.452-.385.385-.909.595-1.452.595h-.017l-150.505-.7v160.473c.035,1.137-.874,2.046-2.011,2.046ZM157.178,327.724h162.012v-160.49c0-.542.21-1.067.612-1.452.385-.385.909-.595,1.452-.595h.017l150.487.7-.7-159.861L4.645,4.61l.7,161.994,149.788-.7h.017c.542,0,1.067.21,1.452.595s.612.909.612,1.452v159.773h-.035Z"/>
  <path id="path4156-2" data-name="path4156" class="cls-1" d="M2.581,2.564l470.506,1.434.717,163.971-152.551-.717v162.537h-166.104v-161.82l-151.851.717L2.581,2.564Z"/>
  <path class="cls-3" d="M321.236,331.816h-166.104c-1.137,0-2.046-.909-2.046-2.046v-159.773l-149.788.7h-.017c-.542,0-1.067-.21-1.452-.595s-.612-.909-.612-1.452L.5,2.546c0-.542.21-1.067.595-1.452s.909-.595,1.452-.595h0l470.506,1.434c1.119,0,2.046.909,2.046,2.046l.717,163.971c0,.542-.21,1.067-.595,1.452-.385.385-.909.595-1.452.595h-.017l-150.505-.7v160.473c.035,1.137-.874,2.046-2.011,2.046ZM157.178,327.724h162.012v-160.49c0-.542.21-1.067.612-1.452.385-.385.909-.595,1.452-.595h.017l150.487.7-.7-159.861L4.645,4.61l.7,161.994,149.788-.7h.017c.542,0,1.067.21,1.452.595s.612.909.612,1.452v159.773h-.035Z"/>
  <path id="path4156-3" data-name="path4156" class="cls-1" d="M2.581,2.564l470.506,1.434.717,163.971-152.551-.717v162.537h-166.104v-161.82l-151.851.717L2.581,2.564Z"/>
  <path class="cls-5" d="M157.21,327.723h161.98v-160.49c0-.54.21-1.07.61-1.45.39-.39.91-.6,1.45-.6h.02l150.49.7-.7-159.86L4.65,4.613l.69,161.99,149.79-.7h.02c.54,0,1.07.21,1.45.6.39.38.61.91.61,1.45v159.77ZM475.1,3.983l.72,163.97c0,.54-.21,1.06-.6,1.45-.38.38-.91.59-1.45.59h-.02l-150.5-.7v160.48c.03,1.13-.88,2.04-2.01,2.04h-166.11c-1.13,0-2.04-.91-2.04-2.04v-159.78l-149.79.7h-.02c-.54,0-1.07-.21-1.45-.59-.39-.39-.61-.91-.61-1.45L.5,2.543c0-.54.21-1.06.59-1.45.39-.38.91-.59,1.46-.59l470.5,1.43c1.12,0,2.05.91,2.05,2.05Z"/>
  <polygon class="cls-4" points="92 10.943 92 44.943 67.76 44.943 67.76 163.983 33.76 163.983 33.76 46.353 9.58 46.353 8.77 10.943 92 10.943"/>
  <path class="cls-4" d="M171.78,9.763v1.93l1.11-1.94-1.11.01Z"/>
  <polygon class="cls-4" points="194.97 161.263 94.01 161.263 94.01 10.373 172.97 9.613 172.89 9.753 171.78 9.763 171.78 11.693 153.87 42.923 127.99 42.923 127.99 54.203 158.98 54.203 143.9 81.413 127.62 81.413 127.62 127.623 176.71 127.623 194.97 161.263"/>
  <path class="cls-4" d="M171.78,9.763v1.93l1.11-1.94-1.11.01ZM254.9,12.563l.06.01v-.87l-.06.86Z"/>
  <polygon class="cls-4" points="254.96 11.703 254.9 12.563 254.96 12.573 254.96 44.443 230.72 44.443 230.72 161.003 195.3 161.003 195.3 43.373 171.78 43.373 171.78 11.693 172.89 9.753 254.96 9.013 254.96 11.703"/>
  <path class="cls-4" d="M254.9,12.563l.06.01v-.87l-.06.86Z"/>
  <path class="cls-4" d="M380.12,160.483l-52.8-104.9-.56-1.12h-13.06l26.44-45.78h-3.5c-.19,0-20.11-.05-39.78-.05-11.56,0-20.76,0-27.37.03-3.94.02-6.98.05-9.04.07-1.12.02-1.98.04-2.57.05-.95.02-2.7.07-2.85,1.91l-.07,1.01v.87l.1.01v146.45h33.67l-.04-2.05c-.42-30.06-.8-69.9-.79-96.66l51.7,100.16h40.52ZM288.32,32.653c3.13.13,8.69.06,12.96-.05l-13.36,23.16c.04-11.32.16-19.73.4-23.11Z"/>
  <polygon class="cls-4" points="386.97 44.533 386.97 159.243 383.16 160.163 352.68 101.753 352.68 44.813 386.97 44.533"/>
  <polygon class="cls-4" points="387.13 8.593 387.13 42.923 352.44 42.923 352.44 8.193 387.13 8.593"/>
  <polygon class="cls-4" points="424.63 36.923 466.62 120.923 466.62 161.493 388.5 161.493 387.97 157.703 387.97 120.503 398.15 126.933 431.55 126.933 387.97 41.493 387.97 9.263 467.63 8.453 453.55 43.033 447.97 35.723 425.54 35.723 424.63 36.923"/>
  <path class="cls-2" d="M67.848,164.599h-33.997V46.973H9.664l-.804-35.414h83.227v33.997h-24.239s0,119.043,0,119.043ZM37.908,160.542h25.9V41.482h24.239V15.581H13.004l.63,27.317h24.291v117.644h-.017Z"/>
  <path class="cls-2" d="M195.058,161.882h-100.96V10.993l78.96-.769-19.097,33.315h-25.883v11.28h30.989l-15.075,27.212h-16.282v46.204h49.09l18.258,33.648ZM98.155,157.825h90.1l-13.851-25.533h-50.716v-54.301h17.943l10.598-19.115h-28.174v-19.377h27.579l14.41-25.148-67.89.665s0,142.81,0,142.81Z"/>
  <path class="cls-2" d="M230.805,161.619h-35.414V43.992h-23.522V10.38l83.175-.752v35.431h-24.239s0,116.56,0,116.56ZM199.431,157.579h27.317V41.019h24.239V13.72l-75.077.682v25.55h23.522v117.626Z"/>
  <path class="cls-2" d="M380.207,161.095h-40.52l-51.696-100.156c-.017,26.757.367,66.596.787,96.658l.035,2.046h-33.665V13.197l-.157-.018.122-1.871c.157-1.836,1.906-1.889,2.851-1.906.595-.018,1.452-.035,2.571-.052,2.064-.018,5.107-.052,9.041-.07,6.611-.035,15.809-.035,27.369-.035,19.674,0,39.594.052,39.786.052h3.498l-26.442,45.784h13.064l.56,1.119,52.797,104.895ZM342.152,157.038h31.479l-49.282-97.9h-17.576l26.442-45.802c-27.544-.052-65.301-.07-74.028.07v142.198h25.515c-.105-7.485-.437-34.19-.63-60.737-.122-18.275-.157-32.896-.087-43.459.14-20.846.472-21.126,1.487-21.913l.787-.612,1.014.245c1.172.227,9.881.157,17.593-.07l3.62-.105-17.139,29.678,50.804,98.407ZM288.41,33.273c-.245,3.375-.367,11.787-.402,23.102l13.361-23.155c-4.267.105-9.828.175-12.959.052Z"/>
  <path class="cls-2" d="M383.25,160.781l-30.482-58.411v-56.942l34.295-.28v114.706l-3.812.927ZM356.825,101.373l26.198,50.209V49.223l-26.198.21v51.94ZM387.237,43.539h-34.714V8.807l34.697.402v34.33h.017ZM356.58,39.482h26.6V13.214l-26.6-.315v26.582Z"/>
  <path class="cls-2" d="M466.721,162.11h-78.138l-.525-3.795v-37.198l10.178,6.436h33.403l-43.581-85.448V9.874l79.659-.804-14.078,34.574-5.579-7.31h-22.438l-.909,1.207,41.989,83.996v40.573h.017ZM392.116,158.07h70.565v-35.554l-42.689-85.378,3.62-4.827h26.46l2.483,3.27,9.111-22.385-69.551.7v27.247l46.152,90.467h-41.202l-4.949-3.13v29.59Z"/>
</svg>