{
	"asset":{
		"generator":"Khronos glTF Blender I/O v3.6.27",
		"version":"2.0"
	},
	"extensionsUsed":[
		"KHR_materials_specular",
		"KHR_materials_ior",
		"KHR_materials_emissive_strength"
	],
	"scene":0,
	"scenes":[
		{
			"name":"Scene",
			"nodes":[
				0,
				1,
				2,
				3,
				4,
				5,
				6,
				7,
				8,
				9
			]
		}
	],
	"nodes":[
		{
			"name":"Plane",
			"rotation":[
				0.7071068286895752,
				0,
				0,
				0.7071068286895752
			],
			"translation":[
				0,
				0.14852666854858398,
				0
			]
		},
		{
			"mesh":0,
			"name":"Plane.001",
			"scale":[
				1.0000028610229492,
				1,
				1.0000035762786865
			],
			"translation":[
				0,
				0.14852666854858398,
				0
			]
		},
		{
			"mesh":1,
			"name":"Plane.002",
			"scale":[
				1.0174020528793335,
				0.9338260293006897,
				1
			],
			"translation":[
				0,
				0.5447956919670105,
				0
			]
		},
		{
			"mesh":2,
			"name":"Cylinder",
			"scale":[
				0.20243676006793976,
				0.20243676006793976,
				0.20243676006793976
			],
			"translation":[
				2.344085931777954,
				0.30233538150787354,
				1.1203473806381226
			]
		},
		{
			"mesh":3,
			"name":"Circle",
			"scale":[
				0.5184216499328613,
				0.5184216499328613,
				0.5184216499328613
			],
			"translation":[
				-4.264397621154785,
				2.6132137775421143,
				-0.01576015166938305
			]
		},
		{
			"mesh":4,
			"name":"Plane.003",
			"scale":[
				59.874393463134766,
				59.874393463134766,
				59.874393463134766
			]
		},
		{
			"mesh":5,
			"name":"Cube",
			"scale":[
				0.41439318656921387,
				0.41439318656921387,
				0.41439318656921387
			],
			"translation":[
				-4.2514190673828125,
				0.0011014938354492188,
				-0.02835369110107422
			]
		},
		{
			"mesh":6,
			"name":"Cube.001",
			"scale":[
				0.7448742389678955,
				0.4143931567668915,
				0.7448742389678955
			],
			"translation":[
				12.436055183410645,
				0.08479219675064087,
				3.3396291732788086
			]
		},
		{
			"mesh":7,
			"name":"Plane.004",
			"scale":[
				25.19195556640625,
				25.19195556640625,
				25.19195556640625
			]
		},
		{
			"name":"Cube.002",
			"scale":[
				0.1688801646232605,
				0.1688801646232605,
				0.015905151143670082
			],
			"translation":[
				12.435999870300293,
				0.5009099841117859,
				3.9446303844451904
			]
		}
	],
	"animations":[
		{
			"channels":[
				{
					"sampler":0,
					"target":{
						"node":1,
						"path":"translation"
					}
				}
			],
			"name":"Plane.001Action",
			"samplers":[
				{
					"input":48,
					"interpolation":"LINEAR",
					"output":49
				}
			]
		},
		{
			"channels":[
				{
					"sampler":0,
					"target":{
						"node":6,
						"path":"translation"
					}
				},
				{
					"sampler":1,
					"target":{
						"node":6,
						"path":"rotation"
					}
				},
				{
					"sampler":2,
					"target":{
						"node":6,
						"path":"scale"
					}
				}
			],
			"name":"dropping-cube",
			"samplers":[
				{
					"input":50,
					"interpolation":"LINEAR",
					"output":51
				},
				{
					"input":52,
					"interpolation":"STEP",
					"output":53
				},
				{
					"input":52,
					"interpolation":"STEP",
					"output":54
				}
			]
		},
		{
			"channels":[
				{
					"sampler":0,
					"target":{
						"node":6,
						"path":"translation"
					}
				},
				{
					"sampler":1,
					"target":{
						"node":6,
						"path":"rotation"
					}
				},
				{
					"sampler":2,
					"target":{
						"node":6,
						"path":"scale"
					}
				}
			],
			"name":"moving cube",
			"samplers":[
				{
					"input":55,
					"interpolation":"LINEAR",
					"output":56
				},
				{
					"input":55,
					"interpolation":"LINEAR",
					"output":57
				},
				{
					"input":55,
					"interpolation":"LINEAR",
					"output":58
				}
			]
		},
		{
			"channels":[
				{
					"sampler":0,
					"target":{
						"node":7,
						"path":"translation"
					}
				},
				{
					"sampler":1,
					"target":{
						"node":7,
						"path":"rotation"
					}
				},
				{
					"sampler":2,
					"target":{
						"node":7,
						"path":"scale"
					}
				}
			],
			"name":"trap-opening",
			"samplers":[
				{
					"input":59,
					"interpolation":"STEP",
					"output":60
				},
				{
					"input":59,
					"interpolation":"STEP",
					"output":61
				},
				{
					"input":62,
					"interpolation":"LINEAR",
					"output":63
				}
			]
		}
	],
	"materials":[
		{
			"doubleSided":true,
			"name":"bois",
			"pbrMetallicRoughness":{
				"baseColorFactor":[
					0.9386856555938721,
					0.2703530192375183,
					0.061933454126119614,
					1
				],
				"metallicFactor":0
			}
		},
		{
			"doubleSided":true,
			"extensions":{
				"KHR_materials_specular":{
					"specularColorFactor":[
						0,
						0,
						0
					]
				},
				"KHR_materials_ior":{
					"ior":1.4500000476837158
				}
			},
			"name":"metal",
			"pbrMetallicRoughness":{
				"roughnessFactor":0.5376343727111816
			}
		},
		{
			"doubleSided":true,
			"name":"toile-orange",
			"pbrMetallicRoughness":{
				"baseColorFactor":[
					0.8000000715255737,
					0.0901915580034256,
					0.005073689855635166,
					1
				],
				"metallicFactor":0,
				"roughnessFactor":0.8367028832435608
			}
		},
		{
			"doubleSided":true,
			"name":"Material.003",
			"pbrMetallicRoughness":{
				"baseColorFactor":[
					0.09242764860391617,
					0.4555584192276001,
					0.799102783203125,
					1
				],
				"metallicFactor":0
			}
		},
		{
			"doubleSided":true,
			"emissiveFactor":[
				1,
				1,
				1
			],
			"extensions":{
				"KHR_materials_emissive_strength":{
					"emissiveStrength":14.10000228881836
				},
				"KHR_materials_specular":{
					"specularColorFactor":[
						2.371357614441398,
						2.371357614441398,
						2.371357614441398
					]
				},
				"KHR_materials_ior":{
					"ior":1.4500000476837158
				}
			},
			"name":"light",
			"pbrMetallicRoughness":{
				"baseColorFactor":[
					0.800000011920929,
					0.800000011920929,
					0.800000011920929,
					1
				],
				"metallicFactor":0,
				"roughnessFactor":0
			}
		},
		{
			"doubleSided":true,
			"extensions":{
				"KHR_materials_specular":{
					"specularColorFactor":[
						0.9394224189092104,
						0.9394224189092104,
						0.9394224189092104
					]
				},
				"KHR_materials_ior":{
					"ior":1.4500000476837158
				}
			},
			"name":"Material.005",
			"pbrMetallicRoughness":{
				"baseColorFactor":[
					0.22658094763755798,
					0.1912851780653,
					0.1055893525481224,
					1
				],
				"metallicFactor":0
			}
		},
		{
			"doubleSided":true,
			"name":"Material",
			"pbrMetallicRoughness":{
				"baseColorFactor":[
					0.0030352449975907803,
					0.00972120463848114,
					0.0284260306507349,
					1
				],
				"metallicFactor":0,
				"roughnessFactor":0.5
			}
		}
	],
	"meshes":[
		{
			"name":"Plane.002",
			"primitives":[
				{
					"attributes":{
						"POSITION":0,
						"NORMAL":1,
						"TEXCOORD_0":2
					},
					"indices":3,
					"material":0
				}
			]
		},
		{
			"name":"Plane.003",
			"primitives":[
				{
					"attributes":{
						"POSITION":4,
						"NORMAL":5,
						"TEXCOORD_0":6
					},
					"indices":7,
					"material":1
				}
			]
		},
		{
			"name":"Cylinder.001",
			"primitives":[
				{
					"attributes":{
						"POSITION":8,
						"NORMAL":9,
						"TEXCOORD_0":10
					},
					"indices":11,
					"material":1
				},
				{
					"attributes":{
						"POSITION":12,
						"NORMAL":13,
						"TEXCOORD_0":14
					},
					"indices":15,
					"material":2
				}
			]
		},
		{
			"name":"Circle.002",
			"primitives":[
				{
					"attributes":{
						"POSITION":16,
						"NORMAL":17,
						"TEXCOORD_0":18
					},
					"indices":19,
					"material":1
				},
				{
					"attributes":{
						"POSITION":20,
						"NORMAL":21,
						"TEXCOORD_0":22
					},
					"indices":23,
					"material":3
				},
				{
					"attributes":{
						"POSITION":24,
						"NORMAL":25,
						"TEXCOORD_0":26
					},
					"indices":27,
					"material":2
				},
				{
					"attributes":{
						"POSITION":28,
						"NORMAL":29,
						"TEXCOORD_0":30
					},
					"indices":31,
					"material":4
				}
			]
		},
		{
			"name":"Plane.004",
			"primitives":[
				{
					"attributes":{
						"POSITION":32,
						"NORMAL":33,
						"TEXCOORD_0":34
					},
					"indices":35,
					"material":5
				}
			]
		},
		{
			"name":"Cube",
			"primitives":[
				{
					"attributes":{
						"POSITION":36,
						"NORMAL":37,
						"TEXCOORD_0":38
					},
					"indices":39
				}
			]
		},
		{
			"name":"Cube.001",
			"primitives":[
				{
					"attributes":{
						"POSITION":40,
						"NORMAL":41,
						"TEXCOORD_0":42
					},
					"indices":43
				}
			]
		},
		{
			"name":"Plane",
			"primitives":[
				{
					"attributes":{
						"POSITION":44,
						"NORMAL":45,
						"TEXCOORD_0":46
					},
					"indices":47,
					"material":6
				}
			]
		}
	],
	"accessors":[
		{
			"bufferView":0,
			"componentType":5126,
			"count":1232,
			"max":[
				14.740161895751953,
				0.9209150075912476,
				0.6723077297210693
			],
			"min":[
				8.80842399597168,
				-0.12877394258975983,
				-0.6723077893257141
			],
			"type":"VEC3"
		},
		{
			"bufferView":1,
			"componentType":5126,
			"count":1232,
			"type":"VEC3"
		},
		{
			"bufferView":2,
			"componentType":5126,
			"count":1232,
			"type":"VEC2"
		},
		{
			"bufferView":3,
			"componentType":5123,
			"count":2904,
			"type":"SCALAR"
		},
		{
			"bufferView":4,
			"componentType":5126,
			"count":784,
			"max":[
				2.727630853652954,
				0.35450297594070435,
				0.7494505047798157
			],
			"min":[
				-2.727630853652954,
				-0.35450297594070435,
				0
			],
			"type":"VEC3"
		},
		{
			"bufferView":5,
			"componentType":5126,
			"count":784,
			"type":"VEC3"
		},
		{
			"bufferView":6,
			"componentType":5126,
			"count":784,
			"type":"VEC2"
		},
		{
			"bufferView":7,
			"componentType":5123,
			"count":2184,
			"type":"SCALAR"
		},
		{
			"bufferView":8,
			"componentType":5126,
			"count":913,
			"max":[
				1.155307412147522,
				2.3404593467712402,
				0.9998912811279297
			],
			"min":[
				-1.155307412147522,
				-0.957939863204956,
				-2.684335708618164
			],
			"type":"VEC3"
		},
		{
			"bufferView":9,
			"componentType":5126,
			"count":913,
			"type":"VEC3"
		},
		{
			"bufferView":10,
			"componentType":5126,
			"count":913,
			"type":"VEC2"
		},
		{
			"bufferView":11,
			"componentType":5123,
			"count":3930,
			"type":"SCALAR"
		},
		{
			"bufferView":12,
			"componentType":5126,
			"count":745,
			"max":[
				1.4602571725845337,
				-0.9225040674209595,
				1.4602317810058594
			],
			"min":[
				-1.460257649421692,
				-1.482209324836731,
				-1.4602832794189453
			],
			"type":"VEC3"
		},
		{
			"bufferView":13,
			"componentType":5126,
			"count":745,
			"type":"VEC3"
		},
		{
			"bufferView":14,
			"componentType":5126,
			"count":745,
			"type":"VEC2"
		},
		{
			"bufferView":15,
			"componentType":5123,
			"count":3162,
			"type":"SCALAR"
		},
		{
			"bufferView":16,
			"componentType":5126,
			"count":546,
			"max":[
				2.6789498329162598,
				0.3370565176010132,
				2.99393892288208
			],
			"min":[
				-1.0172194242477417,
				-3.649721622467041,
				-1.0172195434570312
			],
			"type":"VEC3"
		},
		{
			"bufferView":17,
			"componentType":5126,
			"count":546,
			"type":"VEC3"
		},
		{
			"bufferView":18,
			"componentType":5126,
			"count":546,
			"type":"VEC2"
		},
		{
			"bufferView":19,
			"componentType":5123,
			"count":1626,
			"type":"SCALAR"
		},
		{
			"bufferView":20,
			"componentType":5126,
			"count":110,
			"max":[
				2.467202663421631,
				0.00027060508728027344,
				2.5637707710266113
			],
			"min":[
				-2.5995383262634277,
				-5.066470146179199,
				-2.5029702186584473
			],
			"type":"VEC3"
		},
		{
			"bufferView":21,
			"componentType":5126,
			"count":110,
			"type":"VEC3"
		},
		{
			"bufferView":22,
			"componentType":5126,
			"count":110,
			"type":"VEC2"
		},
		{
			"bufferView":23,
			"componentType":5123,
			"count":264,
			"type":"SCALAR"
		},
		{
			"bufferView":24,
			"componentType":5126,
			"count":3358,
			"max":[
				3.460792303085327,
				0.00027060508728027344,
				3.5185062885284424
			],
			"min":[
				-1.2088286876678467,
				-4.849238872528076,
				-2.5029702186584473
			],
			"type":"VEC3"
		},
		{
			"bufferView":25,
			"componentType":5126,
			"count":3358,
			"type":"VEC3"
		},
		{
			"bufferView":26,
			"componentType":5126,
			"count":3358,
			"type":"VEC2"
		},
		{
			"bufferView":27,
			"componentType":5123,
			"count":13452,
			"type":"SCALAR"
		},
		{
			"bufferView":28,
			"componentType":5126,
			"count":332,
			"max":[
				1.5004732608795166,
				0.5679566860198975,
				1.0005768537521362
			],
			"min":[
				-1.1814851760864258,
				-3.974245071411133,
				-0.9397763013839722
			],
			"type":"VEC3"
		},
		{
			"bufferView":29,
			"componentType":5126,
			"count":332,
			"type":"VEC3"
		},
		{
			"bufferView":30,
			"componentType":5126,
			"count":332,
			"type":"VEC2"
		},
		{
			"bufferView":31,
			"componentType":5123,
			"count":1536,
			"type":"SCALAR"
		},
		{
			"bufferView":32,
			"componentType":5126,
			"count":64,
			"max":[
				1,
				0.5259491205215454,
				1
			],
			"min":[
				-1,
				0,
				-1
			],
			"type":"VEC3"
		},
		{
			"bufferView":33,
			"componentType":5126,
			"count":64,
			"type":"VEC3"
		},
		{
			"bufferView":34,
			"componentType":5126,
			"count":64,
			"type":"VEC2"
		},
		{
			"bufferView":35,
			"componentType":5123,
			"count":246,
			"type":"SCALAR"
		},
		{
			"bufferView":36,
			"componentType":5126,
			"count":24,
			"max":[
				0.9933071136474609,
				0.9933066368103027,
				0.9933059215545654
			],
			"min":[
				-0.9933071136474609,
				-0.9933077096939087,
				-0.9933083057403564
			],
			"type":"VEC3"
		},
		{
			"bufferView":37,
			"componentType":5126,
			"count":24,
			"type":"VEC3"
		},
		{
			"bufferView":38,
			"componentType":5126,
			"count":24,
			"type":"VEC2"
		},
		{
			"bufferView":39,
			"componentType":5123,
			"count":36,
			"type":"SCALAR"
		},
		{
			"bufferView":40,
			"componentType":5126,
			"count":96,
			"max":[
				0.6176526546478271,
				2.5350264110102216e-09,
				0.6176526546478271
			],
			"min":[
				-0.6176526546478271,
				-1.6472365856170654,
				-0.6176526546478271
			],
			"type":"VEC3"
		},
		{
			"bufferView":41,
			"componentType":5126,
			"count":96,
			"type":"VEC3"
		},
		{
			"bufferView":42,
			"componentType":5126,
			"count":96,
			"type":"VEC2"
		},
		{
			"bufferView":43,
			"componentType":5123,
			"count":288,
			"type":"SCALAR"
		},
		{
			"bufferView":44,
			"componentType":5126,
			"count":4,
			"max":[
				1,
				0,
				1
			],
			"min":[
				-1,
				0,
				-1
			],
			"type":"VEC3"
		},
		{
			"bufferView":45,
			"componentType":5126,
			"count":4,
			"type":"VEC3"
		},
		{
			"bufferView":46,
			"componentType":5126,
			"count":4,
			"type":"VEC2"
		},
		{
			"bufferView":47,
			"componentType":5123,
			"count":6,
			"type":"SCALAR"
		},
		{
			"bufferView":48,
			"componentType":5126,
			"count":120,
			"max":[
				5
			],
			"min":[
				0.041666666666666664
			],
			"type":"SCALAR"
		},
		{
			"bufferView":49,
			"componentType":5126,
			"count":120,
			"type":"VEC3"
		},
		{
			"bufferView":50,
			"componentType":5126,
			"count":21,
			"max":[
				1.6666666666666667
			],
			"min":[
				0.8333333333333334
			],
			"type":"SCALAR"
		},
		{
			"bufferView":51,
			"componentType":5126,
			"count":21,
			"type":"VEC3"
		},
		{
			"bufferView":52,
			"componentType":5126,
			"count":2,
			"max":[
				1.6666666666666667
			],
			"min":[
				0.8333333333333334
			],
			"type":"SCALAR"
		},
		{
			"bufferView":53,
			"componentType":5126,
			"count":2,
			"type":"VEC4"
		},
		{
			"bufferView":54,
			"componentType":5126,
			"count":2,
			"type":"VEC3"
		},
		{
			"bufferView":55,
			"componentType":5126,
			"count":102,
			"max":[
				4.25
			],
			"min":[
				0.041666666666666664
			],
			"type":"SCALAR"
		},
		{
			"bufferView":56,
			"componentType":5126,
			"count":102,
			"type":"VEC3"
		},
		{
			"bufferView":57,
			"componentType":5126,
			"count":102,
			"type":"VEC4"
		},
		{
			"bufferView":58,
			"componentType":5126,
			"count":102,
			"type":"VEC3"
		},
		{
			"bufferView":59,
			"componentType":5126,
			"count":2,
			"max":[
				0.7916666666666666
			],
			"min":[
				0.4166666666666667
			],
			"type":"SCALAR"
		},
		{
			"bufferView":60,
			"componentType":5126,
			"count":2,
			"type":"VEC3"
		},
		{
			"bufferView":61,
			"componentType":5126,
			"count":2,
			"type":"VEC4"
		},
		{
			"bufferView":62,
			"componentType":5126,
			"count":10,
			"max":[
				0.7916666666666666
			],
			"min":[
				0.4166666666666667
			],
			"type":"SCALAR"
		},
		{
			"bufferView":63,
			"componentType":5126,
			"count":10,
			"type":"VEC3"
		}
	],
	"bufferViews":[
		{
			"buffer":0,
			"byteLength":14784,
			"byteOffset":0,
			"target":34962
		},
		{
			"buffer":0,
			"byteLength":14784,
			"byteOffset":14784,
			"target":34962
		},
		{
			"buffer":0,
			"byteLength":9856,
			"byteOffset":29568,
			"target":34962
		},
		{
			"buffer":0,
			"byteLength":5808,
			"byteOffset":39424,
			"target":34963
		},
		{
			"buffer":0,
			"byteLength":9408,
			"byteOffset":45232,
			"target":34962
		},
		{
			"buffer":0,
			"byteLength":9408,
			"byteOffset":54640,
			"target":34962
		},
		{
			"buffer":0,
			"byteLength":6272,
			"byteOffset":64048,
			"target":34962
		},
		{
			"buffer":0,
			"byteLength":4368,
			"byteOffset":70320,
			"target":34963
		},
		{
			"buffer":0,
			"byteLength":10956,
			"byteOffset":74688,
			"target":34962
		},
		{
			"buffer":0,
			"byteLength":10956,
			"byteOffset":85644,
			"target":34962
		},
		{
			"buffer":0,
			"byteLength":7304,
			"byteOffset":96600,
			"target":34962
		},
		{
			"buffer":0,
			"byteLength":7860,
			"byteOffset":103904,
			"target":34963
		},
		{
			"buffer":0,
			"byteLength":8940,
			"byteOffset":111764,
			"target":34962
		},
		{
			"buffer":0,
			"byteLength":8940,
			"byteOffset":120704,
			"target":34962
		},
		{
			"buffer":0,
			"byteLength":5960,
			"byteOffset":129644,
			"target":34962
		},
		{
			"buffer":0,
			"byteLength":6324,
			"byteOffset":135604,
			"target":34963
		},
		{
			"buffer":0,
			"byteLength":6552,
			"byteOffset":141928,
			"target":34962
		},
		{
			"buffer":0,
			"byteLength":6552,
			"byteOffset":148480,
			"target":34962
		},
		{
			"buffer":0,
			"byteLength":4368,
			"byteOffset":155032,
			"target":34962
		},
		{
			"buffer":0,
			"byteLength":3252,
			"byteOffset":159400,
			"target":34963
		},
		{
			"buffer":0,
			"byteLength":1320,
			"byteOffset":162652,
			"target":34962
		},
		{
			"buffer":0,
			"byteLength":1320,
			"byteOffset":163972,
			"target":34962
		},
		{
			"buffer":0,
			"byteLength":880,
			"byteOffset":165292,
			"target":34962
		},
		{
			"buffer":0,
			"byteLength":528,
			"byteOffset":166172,
			"target":34963
		},
		{
			"buffer":0,
			"byteLength":40296,
			"byteOffset":166700,
			"target":34962
		},
		{
			"buffer":0,
			"byteLength":40296,
			"byteOffset":206996,
			"target":34962
		},
		{
			"buffer":0,
			"byteLength":26864,
			"byteOffset":247292,
			"target":34962
		},
		{
			"buffer":0,
			"byteLength":26904,
			"byteOffset":274156,
			"target":34963
		},
		{
			"buffer":0,
			"byteLength":3984,
			"byteOffset":301060,
			"target":34962
		},
		{
			"buffer":0,
			"byteLength":3984,
			"byteOffset":305044,
			"target":34962
		},
		{
			"buffer":0,
			"byteLength":2656,
			"byteOffset":309028,
			"target":34962
		},
		{
			"buffer":0,
			"byteLength":3072,
			"byteOffset":311684,
			"target":34963
		},
		{
			"buffer":0,
			"byteLength":768,
			"byteOffset":314756,
			"target":34962
		},
		{
			"buffer":0,
			"byteLength":768,
			"byteOffset":315524,
			"target":34962
		},
		{
			"buffer":0,
			"byteLength":512,
			"byteOffset":316292,
			"target":34962
		},
		{
			"buffer":0,
			"byteLength":492,
			"byteOffset":316804,
			"target":34963
		},
		{
			"buffer":0,
			"byteLength":288,
			"byteOffset":317296,
			"target":34962
		},
		{
			"buffer":0,
			"byteLength":288,
			"byteOffset":317584,
			"target":34962
		},
		{
			"buffer":0,
			"byteLength":192,
			"byteOffset":317872,
			"target":34962
		},
		{
			"buffer":0,
			"byteLength":72,
			"byteOffset":318064,
			"target":34963
		},
		{
			"buffer":0,
			"byteLength":1152,
			"byteOffset":318136,
			"target":34962
		},
		{
			"buffer":0,
			"byteLength":1152,
			"byteOffset":319288,
			"target":34962
		},
		{
			"buffer":0,
			"byteLength":768,
			"byteOffset":320440,
			"target":34962
		},
		{
			"buffer":0,
			"byteLength":576,
			"byteOffset":321208,
			"target":34963
		},
		{
			"buffer":0,
			"byteLength":48,
			"byteOffset":321784,
			"target":34962
		},
		{
			"buffer":0,
			"byteLength":48,
			"byteOffset":321832,
			"target":34962
		},
		{
			"buffer":0,
			"byteLength":32,
			"byteOffset":321880,
			"target":34962
		},
		{
			"buffer":0,
			"byteLength":12,
			"byteOffset":321912,
			"target":34963
		},
		{
			"buffer":0,
			"byteLength":480,
			"byteOffset":321924
		},
		{
			"buffer":0,
			"byteLength":1440,
			"byteOffset":322404
		},
		{
			"buffer":0,
			"byteLength":84,
			"byteOffset":323844
		},
		{
			"buffer":0,
			"byteLength":252,
			"byteOffset":323928
		},
		{
			"buffer":0,
			"byteLength":8,
			"byteOffset":324180
		},
		{
			"buffer":0,
			"byteLength":32,
			"byteOffset":324188
		},
		{
			"buffer":0,
			"byteLength":24,
			"byteOffset":324220
		},
		{
			"buffer":0,
			"byteLength":408,
			"byteOffset":324244
		},
		{
			"buffer":0,
			"byteLength":1224,
			"byteOffset":324652
		},
		{
			"buffer":0,
			"byteLength":1632,
			"byteOffset":325876
		},
		{
			"buffer":0,
			"byteLength":1224,
			"byteOffset":327508
		},
		{
			"buffer":0,
			"byteLength":8,
			"byteOffset":328732
		},
		{
			"buffer":0,
			"byteLength":24,
			"byteOffset":328740
		},
		{
			"buffer":0,
			"byteLength":32,
			"byteOffset":328764
		},
		{
			"buffer":0,
			"byteLength":40,
			"byteOffset":328796
		},
		{
			"buffer":0,
			"byteLength":120,
			"byteOffset":328836
		}
	],
	"buffers":[
		{
			"byteLength":328956,
			"uri":"data:application/octet-stream;base64,"
		}
	]
}
