{
  "asset": {
    "version": "2.0",
    "generator": "THREE.GLTFExporter r165"
  },
  "scenes": [
    {
      "name": "Scene",
      "nodes": [
        14,
        17,
        18
      ]
    }
  ],
  "scene": 0,
  "nodes": [
    {
      "translation": [
        0,
        0.14852666854858398,
        0
      ],
      "scale": [
        1.0000028610229492,
        1,
        1.0000035762786865
      ],
      "name": "Plane001",
      "extras": {
        "name": "Plane.001"
      },
      "mesh": 0
    },
    {
      "translation": [
        0,
        0.5447956919670105,
        0
      ],
      "scale": [
        1.0174020528793335,
        0.9338260293006897,
        1
      ],
      "name": "Plane002",
      "extras": {
        "name": "Plane.002"
      },
      "mesh": 1
    },
    {
      "name": "Cylinder001",
      "mesh": 2
    },
    {
      "name": "Cylinder001_1",
      "mesh": 3
    },
    {
      "rotation": [
        0,
        0,
        0,
        0.9999999999999998
      ],
      "translation": [
        2.344085931777954,
        0.30233538150787354,
        1.1203473806381226
      ],
      "scale": [
        0.20243676006793976,
        0.20243676006793976,
        0.20243676006793976
      ],
      "name": "Cylinder",
      "extras": {
        "name": "Cylinder"
      },
      "children": [
        2,
        3
      ]
    },
    {
      "name": "Circle002",
      "mesh": 4
    },
    {
      "name": "Circle002_1",
      "mesh": 5
    },
    {
      "name": "Circle002_2",
      "mesh": 6
    },
    {
      "name": "Circle002_3",
      "mesh": 7
    },
    {
      "translation": [
        -4.264397621154785,
        2.6132137775421143,
        -0.01576015166938305
      ],
      "scale": [
        0.5184216499328613,
        0.5184216499328613,
        0.5184216499328613
      ],
      "name": "Circle",
      "extras": {
        "name": "Circle"
      },
      "children": [
        5,
        6,
        7,
        8
      ]
    },
    {
      "rotation": [
        -0.12138463075915662,
        0.3580678167608741,
        0.04700920492237472,
        0.9245773871924287
      ],
      "translation": [
        21.451467514038086,
        10.290525436401367,
        24.96991539001465
      ],
      "scale": [
        1.0000000121070824,
        1.000000001572916,
        1.0000000132697162
      ],
      "name": "Camera",
      "extras": {
        "name": "Camera"
      },
      "camera": 0
    },
    {
      "rotation": [
        -0.7071068286895689,
        0,
        0,
        0.7071067336835231
      ],
      "translation": [
        -4.919934272766113,
        4.101855754852295,
        -4.11391544342041
      ],
      "scale": [
        1,
        1.0000001343588654,
        1.0000001343588654
      ],
      "name": "Area",
      "extras": {
        "name": "Area"
      }
    },
    {
      "rotation": [
        -0.7071068286895689,
        0,
        0,
        0.7071067336835231
      ],
      "translation": [
        0,
        10.627087593078613,
        0
      ],
      "scale": [
        1,
        1.0000001343588654,
        1.0000001343588654
      ],
      "name": "Area001",
      "extras": {
        "name": "Area.001"
      }
    },
    {
      "rotation": [
        -0.7071068286895689,
        0,
        0,
        0.7071067336835231
      ],
      "translation": [
        4.733180046081543,
        6.581368446350098,
        -2.92732572555542
      ],
      "scale": [
        1,
        1.0000001343588654,
        1.0000001343588654
      ],
      "name": "Area002",
      "extras": {
        "name": "Area.002"
      }
    },
    {
      "name": "conveyorbelt.gltf",
      "children": [
        0,
        1,
        4,
        9,
        10,
        11,
        12,
        13
      ]
    },
    {
      "translation": [
        0,
        0,
        -1
      ]
    },
    {
      "translation": [
        0,
        0,
        -1
      ]
    },
    {
      "rotation": [
        0.8394863605499268,
        0.035637304186820984,
        0.2726626694202423,
        0.4686658978462219
      ],
      "translation": [
        5.977858066558838,
        -11.858061790466309,
        -2.353935480117798
      ],
      "name": "Sun",
      "extras": {
        "name": "Sun"
      },
      "children": [
        15,
        16
      ],
      "extensions": {
        "KHR_lights_punctual": {
          "light": 0
        }
      }
    },
    {
      "translation": [
        5,
        10,
        7.5
      ],
      "name": "DirectionalLight",
      "extensions": {
        "KHR_lights_punctual": {
          "light": 1
        }
      }
    }
  ],
  "bufferViews": [
    {
      "buffer": 0,
      "byteOffset": 0,
      "byteLength": 14784,
      "target": 34962,
      "byteStride": 12
    },
    {
      "buffer": 0,
      "byteOffset": 14784,
      "byteLength": 14784,
      "target": 34962,
      "byteStride": 12
    },
    {
      "buffer": 0,
      "byteOffset": 29568,
      "byteLength": 9856,
      "target": 34962,
      "byteStride": 8
    },
    {
      "buffer": 0,
      "byteOffset": 39424,
      "byteLength": 5808,
      "target": 34963
    },
    {
      "buffer": 0,
      "byteOffset": 45232,
      "byteLength": 9408,
      "target": 34962,
      "byteStride": 12
    },
    {
      "buffer": 0,
      "byteOffset": 54640,
      "byteLength": 9408,
      "target": 34962,
      "byteStride": 12
    },
    {
      "buffer": 0,
      "byteOffset": 64048,
      "byteLength": 6272,
      "target": 34962,
      "byteStride": 8
    },
    {
      "buffer": 0,
      "byteOffset": 70320,
      "byteLength": 4368,
      "target": 34963
    },
    {
      "buffer": 0,
      "byteOffset": 74688,
      "byteLength": 43824,
      "target": 34962,
      "byteStride": 12
    },
    {
      "buffer": 0,
      "byteOffset": 118512,
      "byteLength": 43824,
      "target": 34962,
      "byteStride": 12
    },
    {
      "buffer": 0,
      "byteOffset": 162336,
      "byteLength": 29216,
      "target": 34962,
      "byteStride": 8
    },
    {
      "buffer": 0,
      "byteOffset": 191552,
      "byteLength": 31440,
      "target": 34963
    },
    {
      "buffer": 0,
      "byteOffset": 222992,
      "byteLength": 35760,
      "target": 34962,
      "byteStride": 12
    },
    {
      "buffer": 0,
      "byteOffset": 258752,
      "byteLength": 35760,
      "target": 34962,
      "byteStride": 12
    },
    {
      "buffer": 0,
      "byteOffset": 294512,
      "byteLength": 23840,
      "target": 34962,
      "byteStride": 8
    },
    {
      "buffer": 0,
      "byteOffset": 318352,
      "byteLength": 25296,
      "target": 34963
    },
    {
      "buffer": 0,
      "byteOffset": 343648,
      "byteLength": 6552,
      "target": 34962,
      "byteStride": 12
    },
    {
      "buffer": 0,
      "byteOffset": 350200,
      "byteLength": 6552,
      "target": 34962,
      "byteStride": 12
    },
    {
      "buffer": 0,
      "byteOffset": 356752,
      "byteLength": 4368,
      "target": 34962,
      "byteStride": 8
    },
    {
      "buffer": 0,
      "byteOffset": 361120,
      "byteLength": 3252,
      "target": 34963
    },
    {
      "buffer": 0,
      "byteOffset": 364372,
      "byteLength": 1320,
      "target": 34962,
      "byteStride": 12
    },
    {
      "buffer": 0,
      "byteOffset": 365692,
      "byteLength": 1320,
      "target": 34962,
      "byteStride": 12
    },
    {
      "buffer": 0,
      "byteOffset": 367012,
      "byteLength": 880,
      "target": 34962,
      "byteStride": 8
    },
    {
      "buffer": 0,
      "byteOffset": 367892,
      "byteLength": 528,
      "target": 34963
    },
    {
      "buffer": 0,
      "byteOffset": 368420,
      "byteLength": 40296,
      "target": 34962,
      "byteStride": 12
    },
    {
      "buffer": 0,
      "byteOffset": 408716,
      "byteLength": 40296,
      "target": 34962,
      "byteStride": 12
    },
    {
      "buffer": 0,
      "byteOffset": 449012,
      "byteLength": 26864,
      "target": 34962,
      "byteStride": 8
    },
    {
      "buffer": 0,
      "byteOffset": 475876,
      "byteLength": 26904,
      "target": 34963
    },
    {
      "buffer": 0,
      "byteOffset": 502780,
      "byteLength": 3984,
      "target": 34962,
      "byteStride": 12
    },
    {
      "buffer": 0,
      "byteOffset": 506764,
      "byteLength": 3984,
      "target": 34962,
      "byteStride": 12
    },
    {
      "buffer": 0,
      "byteOffset": 510748,
      "byteLength": 2656,
      "target": 34962,
      "byteStride": 8
    },
    {
      "buffer": 0,
      "byteOffset": 513404,
      "byteLength": 3072,
      "target": 34963
    },
    {
      "buffer": 0,
      "byteOffset": 516476,
      "byteLength": 480
    },
    {
      "buffer": 0,
      "byteOffset": 516956,
      "byteLength": 1440
    }
  ],
  "buffers": [
    {
      "byteLength": 518396,
      "uri": "data:application/octet-stream;base64,"
    }
  ],
  "accessors": [
    {
      "bufferView": 0,
      "componentType": 5126,
      "count": 1232,
      "max": [
        2.968842029571533,
        0.9209150075912476,
        0.6723077893257141
      ],
      "min": [
        -2.9705865383148193,
        -0.12877386808395386,
        -0.6723077893257141
      ],
      "type": "VEC3"
    },
    {
      "bufferView": 1,
      "componentType": 5126,
      "count": 1232,
      "max": [
        0.9999994039535522,
        1,
        1
      ],
      "min": [
        -0.9999960660934448,
        -1,
        -1
      ],
      "type": "VEC3"
    },
    {
      "bufferView": 2,
      "componentType": 5126,
      "count": 1232,
      "max": [
        1,
        1
      ],
      "min": [
        0,
        0
      ],
      "type": "VEC2"
    },
    {
      "bufferView": 3,
      "componentType": 5123,
      "count": 2904,
      "max": [
        1231
      ],
      "min": [
        0
      ],
      "type": "SCALAR"
    },
    {
      "bufferView": 4,
      "componentType": 5126,
      "count": 784,
      "max": [
        2.727630853652954,
        0.35450297594070435,
        0.7494505047798157
      ],
      "min": [
        -2.727630853652954,
        -0.35450297594070435,
        0
      ],
      "type": "VEC3"
    },
    {
      "bufferView": 5,
      "componentType": 5126,
      "count": 784,
      "max": [
        1,
        1,
        1
      ],
      "min": [
        -1,
        -1,
        -1
      ],
      "type": "VEC3"
    },
    {
      "bufferView": 6,
      "componentType": 5126,
      "count": 784,
      "max": [
        1,
        1
      ],
      "min": [
        0,
        0
      ],
      "type": "VEC2"
    },
    {
      "bufferView": 7,
      "componentType": 5123,
      "count": 2184,
      "max": [
        783
      ],
      "min": [
        0
      ],
      "type": "SCALAR"
    },
    {
      "bufferView": 8,
      "componentType": 5126,
      "count": 3652,
      "max": [
        1.1553075313568115,
        2.3404593467712402,
        0.9998912811279297
      ],
      "min": [
        -24.314010620117188,
        -0.957939863204956,
        -12.068507194519043
      ],
      "type": "VEC3"
    },
    {
      "bufferView": 9,
      "componentType": 5126,
      "count": 3652,
      "max": [
        1,
        1,
        1
      ],
      "min": [
        -1,
        -1,
        -1
      ],
      "type": "VEC3"
    },
    {
      "bufferView": 10,
      "componentType": 5126,
      "count": 3652,
      "max": [
        1,
        0.9900000095367432
      ],
      "min": [
        0,
        0
      ],
      "type": "VEC2"
    },
    {
      "bufferView": 11,
      "componentType": 5123,
      "count": 15720,
      "max": [
        3651
      ],
      "min": [
        0
      ],
      "type": "SCALAR"
    },
    {
      "bufferView": 12,
      "componentType": 5126,
      "count": 2980,
      "max": [
        1.4602572917938232,
        -0.9225039482116699,
        1.4602317810058594
      ],
      "min": [
        -24.618959426879883,
        -1.482209324836731,
        -12.528847694396973
      ],
      "type": "VEC3"
    },
    {
      "bufferView": 13,
      "componentType": 5126,
      "count": 2980,
      "max": [
        0.9982163310050964,
        0.9998325109481812,
        0.9982460141181946
      ],
      "min": [
        -0.9982163310050964,
        -1,
        -0.9982460141181946
      ],
      "type": "VEC3"
    },
    {
      "bufferView": 14,
      "componentType": 5126,
      "count": 2980,
      "max": [
        1,
        0.9900000095367432
      ],
      "min": [
        0,
        0.4444444179534912
      ],
      "type": "VEC2"
    },
    {
      "bufferView": 15,
      "componentType": 5123,
      "count": 12648,
      "max": [
        2979
      ],
      "min": [
        0
      ],
      "type": "SCALAR"
    },
    {
      "bufferView": 16,
      "componentType": 5126,
      "count": 546,
      "max": [
        2.6789498329162598,
        0.3370565176010132,
        2.99393892288208
      ],
      "min": [
        -1.0172194242477417,
        -3.649721622467041,
        -1.0172195434570312
      ],
      "type": "VEC3"
    },
    {
      "bufferView": 17,
      "componentType": 5126,
      "count": 546,
      "max": [
        1,
        1,
        1
      ],
      "min": [
        -1,
        -0.5777897834777832,
        -1
      ],
      "type": "VEC3"
    },
    {
      "bufferView": 18,
      "componentType": 5126,
      "count": 546,
      "max": [
        1,
        1
      ],
      "min": [
        0,
        0
      ],
      "type": "VEC2"
    },
    {
      "bufferView": 19,
      "componentType": 5123,
      "count": 1626,
      "max": [
        545
      ],
      "min": [
        0
      ],
      "type": "SCALAR"
    },
    {
      "bufferView": 20,
      "componentType": 5126,
      "count": 110,
      "max": [
        2.467202663421631,
        0.00027060508728027344,
        2.5637707710266113
      ],
      "min": [
        -2.5995383262634277,
        -5.066470146179199,
        -2.5029702186584473
      ],
      "type": "VEC3"
    },
    {
      "bufferView": 21,
      "componentType": 5126,
      "count": 110,
      "max": [
        1,
        1,
        1
      ],
      "min": [
        -1,
        -1,
        -1
      ],
      "type": "VEC3"
    },
    {
      "bufferView": 22,
      "componentType": 5126,
      "count": 110,
      "max": [
        0.8750000596046448,
        1
      ],
      "min": [
        0.125,
        0
      ],
      "type": "VEC2"
    },
    {
      "bufferView": 23,
      "componentType": 5123,
      "count": 264,
      "max": [
        109
      ],
      "min": [
        0
      ],
      "type": "SCALAR"
    },
    {
      "bufferView": 24,
      "componentType": 5126,
      "count": 3358,
      "max": [
        3.460792303085327,
        0.00027060508728027344,
        3.5185062885284424
      ],
      "min": [
        -1.2088286876678467,
        -4.849238872528076,
        -2.5029702186584473
      ],
      "type": "VEC3"
    },
    {
      "bufferView": 25,
      "componentType": 5126,
      "count": 3358,
      "max": [
        1,
        1,
        1
      ],
      "min": [
        -1,
        -1,
        -1
      ],
      "type": "VEC3"
    },
    {
      "bufferView": 26,
      "componentType": 5126,
      "count": 3358,
      "max": [
        1,
        0.9900000095367432
      ],
      "min": [
        0,
        0
      ],
      "type": "VEC2"
    },
    {
      "bufferView": 27,
      "componentType": 5123,
      "count": 13452,
      "max": [
        3357
      ],
      "min": [
        0
      ],
      "type": "SCALAR"
    },
    {
      "bufferView": 28,
      "componentType": 5126,
      "count": 332,
      "max": [
        1.5004732608795166,
        0.5679566860198975,
        1.0005768537521362
      ],
      "min": [
        -1.1814851760864258,
        -3.974245071411133,
        -0.9397763013839722
      ],
      "type": "VEC3"
    },
    {
      "bufferView": 29,
      "componentType": 5126,
      "count": 332,
      "max": [
        0.97761470079422,
        1,
        0.97761470079422
      ],
      "min": [
        -0.97761470079422,
        -1,
        -0.97761470079422
      ],
      "type": "VEC3"
    },
    {
      "bufferView": 30,
      "componentType": 5126,
      "count": 332,
      "max": [
        1,
        0.5
      ],
      "min": [
        0,
        0
      ],
      "type": "VEC2"
    },
    {
      "bufferView": 31,
      "componentType": 5123,
      "count": 1536,
      "max": [
        331
      ],
      "min": [
        0
      ],
      "type": "SCALAR"
    },
    {
      "bufferView": 32,
      "componentType": 5126,
      "count": 120,
      "max": [
        5
      ],
      "min": [
        0.0416666679084301
      ],
      "type": "SCALAR"
    },
    {
      "bufferView": 33,
      "componentType": 5126,
      "count": 120,
      "max": [
        0,
        0.14852666854858398,
        0
      ],
      "min": [
        -12.736700057983398,
        0.14852666854858398,
        0
      ],
      "type": "VEC3"
    }
  ],
  "materials": [
    {
      "pbrMetallicRoughness": {
        "baseColorFactor": [
          0.9386857284565036,
          0.2704977910022518,
          0.061246054224174035,
          1
        ],
        "metallicFactor": 0,
        "roughnessFactor": 1
      },
      "doubleSided": true,
      "name": "bois"
    },
    {
      "pbrMetallicRoughness": {
        "metallicFactor": 0,
        "roughnessFactor": 0.5376343727111816
      },
      "doubleSided": true,
      "name": "metal",
      "extensions": {
        "KHR_materials_ior": {
          "ior": 1.4500000476837156
        },
        "KHR_materials_specular": {
          "specularFactor": 1,
          "specularColorFactor": [
            0,
            0,
            0
          ]
        }
      }
    },
    {
      "pbrMetallicRoughness": {
        "baseColorFactor": [
          0.0015176349176470587,
          0.3049873140591091,
          0.5209955731953768,
          1
        ],
        "metallicFactor": 0,
        "roughnessFactor": 0.8367028832435608
      },
      "doubleSided": true,
      "name": "toile-orange"
    },
    {
      "pbrMetallicRoughness": {
        "metallicFactor": 0,
        "roughnessFactor": 0.5376343727111816
      },
      "doubleSided": true,
      "name": "metal",
      "extensions": {
        "KHR_materials_ior": {
          "ior": 1.4500000476837156
        },
        "KHR_materials_specular": {
          "specularFactor": 1,
          "specularColorFactor": [
            0,
            0,
            0
          ]
        }
      }
    },
    {
      "pbrMetallicRoughness": {
        "metallicFactor": 0,
        "roughnessFactor": 0.62
      },
      "doubleSided": true,
      "name": "Material.003"
    },
    {
      "pbrMetallicRoughness": {
        "baseColorFactor": [
          0.08865558627723595,
          0.3049873140591091,
          0.5209955731953768,
          1
        ],
        "metallicFactor": 0,
        "roughnessFactor": 0.8367028832435608
      },
      "doubleSided": true,
      "name": "toile-orange"
    },
    {
      "pbrMetallicRoughness": {
        "baseColorFactor": [
          0.7991027380100881,
          0.7991027380100881,
          0.7991027380100881,
          1
        ],
        "metallicFactor": 0,
        "roughnessFactor": 0
      },
      "emissiveFactor": [
        1,
        1,
        1
      ],
      "doubleSided": true,
      "name": "light",
      "extensions": {
        "KHR_materials_ior": {
          "ior": 1.4500000476837156
        },
        "KHR_materials_emissive_strength": {
          "emissiveStrength": 14.10000228881836
        }
      }
    }
  ],
  "meshes": [
    {
      "primitives": [
        {
          "mode": 4,
          "attributes": {
            "POSITION": 0,
            "NORMAL": 1,
            "TEXCOORD_0": 2
          },
          "indices": 3,
          "material": 0
        }
      ]
    },
    {
      "primitives": [
        {
          "mode": 4,
          "attributes": {
            "POSITION": 4,
            "NORMAL": 5,
            "TEXCOORD_0": 6
          },
          "indices": 7,
          "material": 1
        }
      ]
    },
    {
      "primitives": [
        {
          "mode": 4,
          "attributes": {
            "POSITION": 8,
            "NORMAL": 9,
            "TEXCOORD_0": 10
          },
          "indices": 11,
          "material": 1
        }
      ]
    },
    {
      "primitives": [
        {
          "mode": 4,
          "attributes": {
            "POSITION": 12,
            "NORMAL": 13,
            "TEXCOORD_0": 14
          },
          "indices": 15,
          "material": 2
        }
      ]
    },
    {
      "primitives": [
        {
          "mode": 4,
          "attributes": {
            "POSITION": 16,
            "NORMAL": 17,
            "TEXCOORD_0": 18
          },
          "indices": 19,
          "material": 3
        }
      ]
    },
    {
      "primitives": [
        {
          "mode": 4,
          "attributes": {
            "POSITION": 20,
            "NORMAL": 21,
            "TEXCOORD_0": 22
          },
          "indices": 23,
          "material": 4
        }
      ]
    },
    {
      "primitives": [
        {
          "mode": 4,
          "attributes": {
            "POSITION": 24,
            "NORMAL": 25,
            "TEXCOORD_0": 26
          },
          "indices": 27,
          "material": 5
        }
      ]
    },
    {
      "primitives": [
        {
          "mode": 4,
          "attributes": {
            "POSITION": 28,
            "NORMAL": 29,
            "TEXCOORD_0": 30
          },
          "indices": 31,
          "material": 6
        }
      ]
    }
  ],
  "cameras": [
    {
      "type": "perspective",
      "perspective": {
        "aspectRatio": 1.6440860215053763,
        "yfov": 0.2860337495803833,
        "zfar": 1000,
        "znear": 0.10000000149011612
      },
      "name": "PerspectiveCamera"
    }
  ],
  "extensions": {
    "KHR_lights_punctual": {
      "lights": [
        {
          "name": "Sun",
          "color": [
            1,
            1,
            1
          ],
          "intensity": 2.72,
          "type": "directional"
        },
        {
          "name": "DirectionalLight",
          "color": [
            1,
            1,
            1
          ],
          "intensity": 1.3,
          "type": "directional"
        }
      ]
    }
  },
  "animations": [
    {
      "name": "Plane.001Action",
      "samplers": [
        {
          "input": 32,
          "output": 33,
          "interpolation": "LINEAR"
        }
      ],
      "channels": [
        {
          "sampler": 0,
          "target": {
            "node": 0,
            "path": "translation"
          }
        }
      ]
    }
  ],
  "extensionsUsed": [
    "KHR_materials_ior",
    "KHR_materials_specular",
    "KHR_materials_emissive_strength",
    "KHR_lights_punctual"
  ]
}